<svg xmlns="http://www.w3.org/2000/svg" width="300" height="283" viewBox="0 0 300 283" version="1.1"><path d="M 124 9.584 C 104.346 11.925, 86.984 16.241, 69.240 23.197 C 54.868 28.831, 55.124 28.354, 54.222 51.193 C 53.015 81.800, 53.545 118.945, 55.406 134.086 C 58.844 162.059, 63.914 177.343, 75.175 193.682 C 88.162 212.528, 118.449 237.547, 144.097 250.618 C 150.858 254.064, 151.528 254.213, 154.903 253.032 C 169.875 247.790, 206.387 221.580, 218.768 207.185 C 237.944 184.891, 243.280 174.128, 247.866 148.500 C 251.244 129.622, 252.270 108.810, 251.555 73.702 C 251.194 55.991, 250.932 39.811, 250.974 37.747 C 251.080 32.441, 248.778 28.637, 244.319 26.748 C 212.681 13.346, 185.099 7.862, 150.576 8.107 C 142.284 8.166, 130.325 8.831, 124 9.584 M 126 11.699 C 110.524 13.373, 89.095 18.434, 74.148 23.946 C 61.843 28.482, 58.141 30.635, 57.266 33.762 C 55.885 38.699, 56.359 124.486, 57.825 135 C 60.046 150.921, 62.956 163.951, 66.128 172.176 C 71.494 186.090, 84.504 203.632, 99.385 217.016 C 112.033 228.392, 131.075 241.466, 145.885 248.942 L 152.140 252.099 162.752 246.482 C 200.610 226.446, 229.477 198.224, 239.585 171.370 C 248.206 148.466, 251.895 100.727, 248.960 50.051 C 248.198 36.884, 247.575 32.187, 246.421 30.912 C 243.609 27.806, 217.663 18.784, 202 15.467 C 186.073 12.093, 173.642 11.038, 151.500 11.180 C 139.400 11.257, 127.925 11.490, 126 11.699 M 140.500 37.645 C 129.537 38.310, 108.734 41.031, 98.550 43.133 C 80.724 46.813, 63.664 52.826, 62.509 55.837 C 61.164 59.341, 60.800 92.336, 61.917 109.500 C 64.864 154.803, 71.027 176.537, 86.306 195.500 C 94.948 206.226, 107.628 218.244, 120.078 227.510 C 130.876 235.546, 149.472 247, 151.721 247 C 153.937 247, 165.963 240.562, 175.500 234.269 C 201.073 217.398, 222.089 195.710, 230.623 177.384 C 239.787 157.705, 244.472 122.774, 243.830 78.901 C 243.588 62.345, 243.156 55.888, 242.212 54.753 C 238.731 50.566, 210.386 42.953, 187.500 40.060 C 171.956 38.094, 150.918 37.013, 140.500 37.645 M 143.925 39.868 C 141.598 40.439, 141.429 40.800, 142.168 43.614 L 142.987 46.727 152.367 46.727 L 161.748 46.727 162.750 43.464 C 163.709 40.340, 163.623 40.175, 160.751 39.600 C 157.056 38.861, 147.404 39.015, 143.925 39.868 M 123 41.097 C 118.875 41.557, 113.971 42.207, 112.101 42.540 L 108.703 43.146 115.101 49.645 C 123.944 58.626, 124.344 58.783, 128.665 54.989 C 130.627 53.266, 133.868 51.115, 135.866 50.208 C 137.865 49.301, 139.644 48.477, 139.819 48.377 C 139.995 48.277, 139.586 46.351, 138.911 44.097 C 137.519 39.452, 137.599 39.467, 123 41.097 M 166.098 43.149 C 164.469 47.820, 164.681 48.478, 168.384 50.243 C 170.244 51.130, 173.341 53.239, 175.266 54.928 C 177.190 56.618, 179.083 58, 179.472 58 C 180.560 58, 196.088 43.755, 195.567 43.234 C 194.996 42.663, 174.625 40.077, 170.348 40.033 C 167.699 40.005, 167.020 40.503, 166.098 43.149 M 93.500 46.092 C 84.207 48.353, 70.676 52.680, 66.840 54.616 C 64.473 55.810, 64.142 56.624, 63.840 61.993 C 63.575 66.697, 63.831 68.128, 65 68.482 C 67.773 69.322, 111.913 77, 113.968 77 C 115.282 77, 116 76.343, 116 75.141 C 116 74.118, 117.344 70.631, 118.987 67.391 C 120.630 64.151, 121.980 61.166, 121.987 60.758 C 121.998 60.119, 102.244 43.874, 101.699 44.072 C 101.589 44.112, 97.900 45.021, 93.500 46.092 M 192.968 51.611 C 187.761 55.757, 183.147 59.492, 182.715 59.910 C 182.283 60.329, 183.295 63.557, 184.964 67.085 C 186.633 70.613, 187.999 74.287, 187.999 75.250 C 188 77.619, 189.597 77.523, 207.931 74.055 C 216.494 72.435, 227.662 70.363, 232.750 69.451 L 242 67.792 241.985 63.646 C 241.962 57.156, 240.281 54.977, 233.280 52.368 C 228.006 50.402, 214.210 46.627, 204.968 44.621 C 202.912 44.175, 200.658 45.487, 192.968 51.611 M 94.469 51.823 C 93.132 54.320, 91.698 55.596, 90 55.799 C 84.816 56.419, 84.524 56.893, 87.444 59.942 C 89.887 62.492, 90.124 63.304, 89.502 66.990 L 88.798 71.156 91.849 69.578 C 93.528 68.710, 95.620 68, 96.500 68 C 97.380 68, 99.472 68.710, 101.151 69.578 L 104.202 71.156 103.498 66.990 C 102.876 63.304, 103.113 62.492, 105.556 59.942 C 108.473 56.897, 108.183 56.423, 103.027 55.799 C 101.384 55.600, 99.863 54.266, 98.496 51.823 L 96.438 48.145 94.469 51.823 M 203.748 52.401 C 202.408 55.213, 201.405 55.925, 197.968 56.505 L 193.809 57.208 196.776 60.354 C 199.264 62.992, 199.665 64.106, 199.262 67.250 C 198.718 71.496, 199.050 71.674, 203.067 69.301 C 205.773 67.703, 206.154 67.703, 209.505 69.301 C 211.465 70.236, 213.207 71, 213.377 71 C 213.546 71, 213.382 69.313, 213.011 67.250 C 212.424 63.983, 212.722 63.086, 215.328 60.287 L 218.320 57.075 214.076 56.396 C 210.542 55.831, 209.565 55.157, 208.231 52.359 C 207.350 50.511, 206.346 49, 206 49 C 205.654 49, 204.641 50.531, 203.748 52.401 M 139.357 52.082 C 123.900 58.026, 114.807 76.505, 119.461 92.513 C 123.841 107.582, 136.493 117.168, 152 117.168 C 165.307 117.168, 176.269 110.293, 182.213 98.218 C 185.114 92.327, 185.497 90.599, 185.472 83.521 C 185.449 76.894, 184.961 74.457, 182.664 69.500 C 179.125 61.859, 171.727 54.790, 164.401 52.049 C 157.187 49.350, 146.424 49.364, 139.357 52.082 M 140.462 58.366 C 131.211 62.673, 124 73.684, 124 83.500 C 124 89.380, 126.888 96.591, 131.207 101.498 C 142.516 114.346, 161.484 114.346, 172.793 101.498 C 182.196 90.816, 182.196 76.184, 172.793 65.502 C 164.562 56.151, 151.438 53.255, 140.462 58.366 M 151.668 59.978 C 148.853 64.755, 147.975 68.796, 149.096 71.818 C 149.644 73.293, 153.065 77.215, 156.700 80.532 C 162.422 85.756, 163.400 87.163, 163.994 91.032 L 164.680 95.500 166.529 91.500 C 167.546 89.300, 168.406 85.576, 168.439 83.225 C 168.497 79.191, 168.116 78.600, 161.680 72.725 C 155.535 67.115, 154.794 66.024, 154.180 61.684 L 153.500 56.868 151.668 59.978 M 144.250 68.118 C 143.012 70.108, 142 72.245, 142 72.868 C 142 73.491, 141.605 74, 141.123 74 C 139.944 74, 136 83.305, 136 86.086 C 136 87.531, 138.564 90.771, 143.371 95.401 C 148.408 100.252, 151.152 103.766, 152.039 106.500 L 153.336 110.500 154.623 107.500 C 156.228 103.759, 156.347 98.553, 154.894 95.684 C 154.285 94.483, 150.910 90.783, 147.394 87.463 C 142.324 82.676, 141.001 80.813, 141.006 78.463 L 141.012 75.500 142.563 78.475 C 143.417 80.111, 146.750 84.194, 149.971 87.549 C 155.624 93.436, 159.050 100.491, 157.486 103.023 C 157.154 103.560, 157.318 104, 157.852 104 C 159.421 104, 163 95.659, 163 92.002 C 163 89.119, 161.933 87.616, 155.575 81.540 C 148.559 74.835, 147.453 73.007, 146.780 67 C 146.509 64.583, 146.426 64.620, 144.250 68.118 M 63.004 84.625 C 63.011 101.503, 64.233 120, 65.341 120 C 66.147 120, 116.982 99.255, 117.668 98.646 C 117.760 98.564, 117.198 96.037, 116.418 93.031 C 115.638 90.024, 115 85.942, 115 83.960 L 115 80.355 91.750 78.082 C 78.963 76.831, 67.263 75.570, 65.750 75.279 L 63 74.750 63.004 84.625 M 214.500 77.555 C 203.500 78.809, 193.262 79.872, 191.750 79.917 C 189.185 79.994, 189 80.292, 189 84.341 C 189 86.729, 188.366 90.790, 187.591 93.365 L 186.181 98.049 189.341 99.359 C 222.092 112.943, 240.234 120.099, 240.709 119.624 C 241.034 119.299, 241.520 109.126, 241.789 97.017 L 242.278 75 238.389 75.137 C 236.250 75.213, 225.500 76.301, 214.500 77.555 M 220.298 84.324 C 218.389 88.252, 217.726 88.773, 214 89.273 C 211.709 89.580, 209.534 90.139, 209.167 90.513 C 208.800 90.888, 210.010 92.461, 211.856 94.009 C 215.095 96.725, 215.188 97.001, 214.507 101.946 L 213.803 107.070 218.222 104.923 L 222.641 102.776 226.947 104.973 L 231.253 107.169 230.547 102.464 C 229.888 98.072, 230.058 97.535, 233.102 94.394 C 234.896 92.544, 236.094 90.760, 235.764 90.431 C 235.435 90.101, 233.305 89.582, 231.031 89.277 C 227.362 88.785, 226.647 88.229, 224.664 84.328 L 222.431 79.934 220.298 84.324 M 80.535 84.922 C 78.908 88.531, 78.369 88.899, 73.785 89.530 L 68.804 90.215 72.330 93.857 C 75.687 97.325, 75.815 97.716, 75.015 102 C 74.552 104.475, 74.330 106.658, 74.521 106.851 C 74.712 107.044, 76.735 106.153, 79.015 104.871 L 83.162 102.541 87.242 104.776 C 89.487 106.005, 91.418 106.896, 91.534 106.755 C 91.650 106.615, 91.434 104.475, 91.053 102 C 90.410 97.821, 90.604 97.240, 93.778 93.857 L 97.196 90.215 92.215 89.530 C 87.631 88.899, 87.092 88.531, 85.465 84.922 C 84.492 82.765, 83.383 81, 83 81 C 82.617 81, 81.508 82.765, 80.535 84.922 M 92.717 114.430 C 78.536 121.710, 66.502 128.098, 65.974 128.626 C 64.846 129.754, 67.861 149.361, 71.030 161.500 C 72.178 165.900, 74.931 173.269, 77.148 177.875 C 80.489 184.819, 81.397 186.015, 82.460 184.875 C 83.165 184.119, 94.413 168.077, 107.456 149.226 L 131.170 114.951 125.585 108.919 C 122.513 105.601, 120 102.462, 120 101.943 C 120 101.424, 119.662 101.044, 119.250 101.097 C 118.838 101.150, 106.898 107.150, 92.717 114.430 M 184 102.060 C 184 102.643, 181.697 105.555, 178.882 108.531 C 176.067 111.508, 174.007 114.518, 174.303 115.221 C 175.489 118.032, 222.659 184.386, 223.723 184.741 C 225.270 185.257, 231.393 172.242, 233.953 163 C 236.164 155.016, 240 134.321, 240 130.374 C 240 128.277, 236.925 126.469, 213.007 114.504 C 198.161 107.077, 185.561 101, 185.007 101 C 184.453 101, 184 101.477, 184 102.060 M 127.347 126.781 C 123.962 132.677, 113.723 150.246, 104.592 165.824 C 88.988 192.444, 88.079 194.275, 89.473 196.266 C 91.848 199.655, 103.925 211.790, 111.086 217.980 C 121.119 226.654, 145.332 243.008, 146.459 241.871 C 146.661 241.667, 146.978 233.332, 147.163 223.349 C 147.430 208.978, 147.760 205.410, 148.750 206.221 C 149.438 206.784, 150 208.104, 150 209.154 C 150 211.811, 153.096 212.815, 154.436 210.592 C 157.538 205.445, 157.624 205.681, 157.906 220.146 C 158.059 228.041, 158.481 236.200, 158.843 238.278 L 159.500 242.055 169.275 236.091 C 174.651 232.811, 182.976 227.103, 187.775 223.407 C 197.562 215.868, 217 196.642, 217 194.500 C 217 193.473, 173.463 118.721, 171.322 116.071 C 171.131 115.835, 169.390 116.397, 167.454 117.321 C 164.842 118.566, 161.192 119, 153.326 119 C 144.411 119, 142.503 119.279, 141.358 120.750 C 140.123 122.336, 140.051 122.340, 140.585 120.800 C 141.025 119.533, 140.231 118.705, 137.466 117.550 C 135.425 116.698, 133.698 116.014, 133.628 116.031 C 133.558 116.049, 130.731 120.886, 127.347 126.781 M 143 124.918 C 135.238 125.449, 134.473 125.689, 134.189 127.682 C 133.991 129.078, 134.621 130.262, 135.936 130.966 C 137.068 131.571, 138.904 133.852, 140.017 136.033 C 141.863 139.652, 142.390 140, 146.020 140 C 148.209 140, 150 140.450, 150 141 C 150 141.550, 148.619 142, 146.930 142 C 144.328 142, 143.910 142.339, 144.180 144.225 C 145.135 150.869, 161.798 149.956, 161.968 143.250 C 161.988 142.482, 160.650 142, 158.500 142 C 156.575 142, 155 141.550, 155 141 C 155 140.450, 156.758 140, 158.906 140 C 162.946 140, 163.080 139.876, 171.500 128.316 C 173.114 126.101, 170.216 125.034, 162.500 125.002 C 158.650 124.986, 154.600 124.829, 153.500 124.654 C 152.400 124.479, 147.675 124.597, 143 124.918 M 135 127.635 C 135 127.985, 136.012 129.253, 137.250 130.454 C 138.488 131.655, 140.267 134.069, 141.203 135.819 L 142.907 139 152.933 139 L 162.959 139 164.983 135.033 C 166.096 132.852, 167.905 130.586, 169.003 129.998 C 173.555 127.562, 170.555 127, 153 127 C 143.100 127, 135 127.286, 135 127.635 M 145 143.800 C 145 145.851, 147.874 147, 153 147 C 158.126 147, 161 145.851, 161 143.800 C 161 143.360, 157.400 143, 153 143 C 148.600 143, 145 143.360, 145 143.800" stroke="none" fill="#ffffff" fill-rule="evenodd"/><path d="M 75.852 1.911 C 65.471 5.971, 58 14.070, 58 21.263 C 58 23.431, 54.905 28.327, 47.630 37.667 C 47.558 37.758, 47.500 31.158, 47.500 23 C 47.500 14.842, 47.143 7.809, 46.706 7.372 C 45.534 6.201, 41.494 11.528, 37.408 19.631 C 32.819 28.735, 32.286 36.490, 35.853 42.262 C 38.518 46.574, 39.511 46.808, 42.646 43.863 C 44.176 42.426, 42.817 45.800, 38.501 54.160 C 31.291 68.124, 25.715 83.709, 23.691 95.555 L 22.333 103.500 21.621 98.852 C 20.849 93.821, 14.995 81.191, 10.128 74.057 L 7.097 69.615 5.963 72.557 C 5.339 74.176, 4.789 79.565, 4.741 84.533 C 4.667 92.256, 5.033 94.392, 7.260 99.257 C 11.211 107.886, 19.125 111.994, 20.731 106.250 C 21.215 104.518, 21.737 109.796, 22.141 120.500 C 22.895 140.493, 25.159 150.994, 33.017 170.946 C 46.200 204.420, 63.538 220.859, 103 237.298 C 107.675 239.246, 117.125 243.564, 124 246.895 L 136.500 252.951 130.500 252.501 C 127.200 252.253, 120.675 251.793, 116 251.479 C 111.325 251.164, 106.009 250.647, 104.188 250.330 L 100.875 249.754 103.848 247.946 C 107.275 245.862, 108.686 242.532, 107.003 240.503 C 103.779 236.619, 87.897 235.927, 79.784 239.317 C 76.692 240.609, 76.135 241.300, 76.302 243.638 C 76.564 247.324, 74.707 247.611, 67.654 244.972 C 63.575 243.445, 62 242.340, 62 241.001 C 62 238.713, 64.433 238.107, 68.900 239.282 C 72.626 240.263, 77 238.685, 77 236.361 C 77 235.645, 75.699 234.098, 74.108 232.922 L 71.216 230.784 73.268 228.732 L 75.319 226.681 71.754 223.413 C 69.793 221.616, 66.459 219.644, 64.344 219.030 C 58.856 217.436, 34.468 216.434, 33.643 217.768 C 33.084 218.674, 38.356 223.470, 44.641 227.773 C 46.190 228.833, 45.213 228.945, 38.785 228.441 C 34.542 228.108, 28.571 227.255, 25.516 226.545 C 22.461 225.835, 19.753 225.591, 19.498 226.003 C 18.600 227.456, 22.080 236.942, 24.616 239.956 L 27.183 243.006 23.509 248.121 C 21.359 251.113, 20.204 253.604, 20.726 254.126 C 21.216 254.616, 24.290 255.998, 27.558 257.198 C 32.140 258.880, 36.381 259.472, 46.088 259.786 L 58.675 260.192 59.588 266.258 C 60.476 272.167, 60.604 272.360, 64.500 273.728 C 85.284 281.026, 151.991 285.140, 191.023 281.531 C 214.253 279.383, 233.424 276.599, 240.637 274.325 C 246.776 272.390, 248 270.680, 248 264.035 L 248 260.201 260.750 259.790 C 270.619 259.472, 274.843 258.886, 279.442 257.198 C 282.710 255.998, 285.807 254.593, 286.325 254.075 C 286.915 253.485, 285.875 251.235, 283.547 248.064 L 279.826 242.995 282.370 239.972 C 284.775 237.113, 288.860 226.527, 287.921 225.587 C 287.680 225.347, 284.787 225.784, 281.492 226.558 C 278.196 227.332, 271.225 228.266, 266 228.633 L 256.500 229.301 262 224.900 L 267.500 220.500 255 220.183 C 240.605 219.818, 233.239 221.086, 228.988 224.663 C 225.371 227.707, 225.183 230.235, 228.415 232.352 C 229.971 233.372, 230.660 234.585, 230.351 235.764 C 229.634 238.509, 233.818 240.409, 238.100 239.282 C 242.500 238.124, 245 238.706, 245 240.888 C 245 242.834, 240.107 245.514, 234.702 246.528 C 232.026 247.030, 230.987 246.800, 230.287 245.549 C 229.058 243.352, 212.973 239.004, 206.007 238.985 L 200.500 238.971 212 232.848 C 228.049 224.303, 234.279 219.908, 243.545 210.590 C 253.008 201.074, 260.137 189.968, 266.579 174.708 C 270.916 164.433, 276.816 144.025, 277.150 138.143 C 277.235 136.650, 277.561 137.458, 277.900 140 C 278.493 144.447, 278.544 144.499, 282.224 144.388 C 289.666 144.165, 295.970 136.247, 299.492 122.701 C 301.112 116.471, 301.557 104.809, 300.031 108.582 C 299.568 109.727, 297.009 112.576, 294.344 114.914 C 288.666 119.896, 281.620 128.236, 279.645 132.314 C 278.392 134.901, 278.257 133.714, 278.287 120.343 C 278.311 109.914, 278.595 106.318, 279.244 108.250 C 280.373 111.615, 282.589 111.758, 287.015 108.750 C 294.552 103.628, 297.323 91.187, 294.368 75.750 C 294.078 74.237, 293.441 73, 292.951 73 C 290.476 73, 279.607 93.479, 278.433 100.356 C 277.741 104.405, 277.682 104.290, 275.868 95.346 C 272.758 80.013, 264.914 60.490, 256.274 46.575 L 253.743 42.500 256.812 45.380 C 260.687 49.017, 262.505 48.372, 265.134 42.431 C 266.729 38.824, 267.018 36.766, 266.479 32.845 C 265.396 24.969, 255.467 7.200, 253.338 9.328 C 252.086 10.581, 251.688 34.202, 252.847 38.512 C 253.753 41.879, 253.714 42.227, 252.600 40.750 C 248.561 35.396, 250.013 42.390, 254.520 50 C 258.162 56.149, 264 67.596, 264 68.588 C 264 68.943, 262.250 67.651, 260.111 65.719 C 256.436 62.399, 252.365 60.302, 251.423 61.243 C 251.189 61.477, 251.292 65.156, 251.653 69.418 C 252.386 78.098, 253.267 79, 261.005 79 C 264.760 79, 264.889 78.885, 265.190 75.250 C 265.479 71.750, 265.685 72.067, 268.282 80 C 272.628 93.280, 274.071 101.426, 274.656 116 C 275.326 132.664, 273.572 144.557, 267.976 161.306 C 264.512 171.673, 254.740 193.431, 253.095 194.437 C 252.768 194.638, 252.454 191.809, 252.397 188.151 C 252.316 182.913, 251.594 179.953, 248.998 174.216 C 247.185 170.210, 245.226 167.091, 244.643 167.286 C 242.871 167.876, 240.002 177.679, 239.352 185.364 C 238.840 191.422, 239.081 193.395, 240.813 197.310 C 243.006 202.267, 243.809 202.703, 247.316 200.839 C 252.308 198.185, 236.277 214.059, 229 218.976 L 225.500 221.341 228.307 218.306 C 233.050 213.178, 235.425 200.295, 233.134 192.121 C 232.518 189.922, 232.051 190.286, 226.983 196.912 C 216.473 210.657, 216.887 209.829, 217.208 216.461 L 217.500 222.500 220.924 222.334 C 225.273 222.122, 224.853 222.403, 208.500 230.628 C 198.040 235.890, 196.215 236.565, 199.160 234.085 C 202.648 231.148, 208 222.155, 208 219.231 C 208 218.321, 206.901 218.745, 204.750 220.487 C 202.963 221.934, 198.012 225.812, 193.750 229.104 C 189.488 232.396, 186 235.455, 186 235.900 C 186 236.346, 187.463 237.132, 189.250 237.647 C 192.415 238.558, 192.185 238.710, 180.500 243.399 C 173.900 246.048, 164.764 249.537, 160.198 251.154 L 151.895 254.093 135.698 247.893 C 117.697 241.003, 104.436 235.006, 107.500 235.142 C 115.812 235.510, 116.145 233.149, 108.612 227.266 C 105.649 224.951, 100.683 220.735, 97.578 217.897 C 94.472 215.058, 91.705 212.961, 91.430 213.236 C 89.690 214.976, 99.487 233, 102.173 233 C 102.811 233, 103.059 233.275, 102.723 233.610 C 102.120 234.213, 77.409 221.765, 75.523 219.908 C 74.985 219.379, 76.032 219.464, 77.849 220.097 C 80.134 220.894, 81.472 220.928, 82.191 220.209 C 83.995 218.405, 83.380 209.416, 81.135 204.779 C 78.831 200.019, 70.185 188.872, 68.329 188.268 C 66.746 187.752, 65.567 197.624, 66.482 203.731 C 67.277 209.031, 69.184 213.307, 72.367 216.925 C 74.130 218.929, 73.711 218.795, 69.947 216.147 C 64.565 212.361, 49.715 197.437, 52.250 198.362 C 53.212 198.713, 54.678 199.274, 55.508 199.610 C 56.597 200.050, 57.606 198.885, 59.141 195.415 C 60.936 191.357, 61.175 189.422, 60.677 182.971 C 60.070 175.099, 57.337 165.946, 55.401 165.300 C 54.112 164.871, 49.654 174.420, 47.941 181.279 C 47.285 183.908, 47.014 187.698, 47.339 189.702 C 47.909 193.214, 47.875 193.266, 46.388 191.143 C 43.333 186.781, 36.041 170.290, 32.618 160 C 26.809 142.539, 25.505 134.503, 25.557 116.500 C 25.606 99.431, 26.895 91.849, 32.451 75.946 C 35.550 67.077, 35.909 66.629, 35.253 72.451 L 34.740 77 38.920 77 C 43.378 77, 48.087 75.058, 51.750 71.709 C 53.629 69.990, 54 68.609, 54 63.326 C 54 58.920, 53.621 57.007, 52.750 57.022 C 50.151 57.068, 42.371 61.236, 39.155 64.307 L 35.809 67.500 37.457 63.502 C 39.706 58.045, 45.157 48.414, 50.531 40.399 C 52.989 36.734, 55 33.401, 55 32.993 C 55 30.790, 61.843 25.203, 65.310 24.576 C 70.537 23.631, 76.259 18.182, 81.593 9.071 C 84.017 4.930, 86 1.195, 86 0.771 C 86 -0.572, 80.671 0.027, 75.852 1.911 M 214 2.643 C 214 3.137, 216.015 6.984, 218.477 11.191 C 222.620 18.267, 223.349 18.985, 228.227 20.788 C 239.197 24.843, 240.967 25.366, 241.595 24.738 C 241.950 24.384, 241.933 22.457, 241.558 20.457 C 240.645 15.590, 234.144 8.686, 227.524 5.555 C 221.853 2.872, 214 1.181, 214 2.643 M 140 18.883 C 140 19.926, 140.893 21, 142 21.290 C 143.670 21.726, 144 22.654, 144 26.906 C 144 30.767, 144.363 32, 145.500 32 C 146.648 32, 147 30.735, 147 26.617 C 147 22.074, 147.312 21.152, 149 20.710 C 150.100 20.423, 151 19.470, 151 18.594 C 151 17.329, 149.866 17, 145.500 17 C 140.780 17, 140 17.267, 140 18.883 M 153 24.500 C 153 30.346, 153.316 32, 154.434 32 C 155.254 32, 156.002 30.824, 156.184 29.250 C 156.411 27.272, 157.062 26.500, 158.500 26.500 C 159.938 26.500, 160.589 27.272, 160.816 29.250 C 160.998 30.824, 161.746 32, 162.566 32 C 163.684 32, 164 30.346, 164 24.500 C 164 18.654, 163.684 17, 162.566 17 C 161.746 17, 160.998 18.176, 160.816 19.750 C 160.589 21.728, 159.938 22.500, 158.500 22.500 C 157.062 22.500, 156.411 21.728, 156.184 19.750 C 156.002 18.176, 155.254 17, 154.434 17 C 153.316 17, 153 18.654, 153 24.500 M 125.667 18.667 C 125.300 19.033, 125 22.408, 125 26.167 L 125 33 129.500 33 C 133.333 33, 134 32.704, 134 31 C 134 29.436, 133.333 29, 130.941 29 C 129.156 29, 128.139 28.583, 128.500 28 C 128.840 27.450, 129.991 27, 131.059 27 C 132.302 27, 133 26.314, 133 25.094 C 133 23.718, 132.475 23.325, 131.113 23.681 C 130.075 23.952, 128.957 23.740, 128.629 23.209 C 128.301 22.678, 129.375 21.975, 131.016 21.647 C 135.572 20.736, 134.935 18, 130.167 18 C 128.058 18, 126.033 18.300, 125.667 18.667 M 167 24.893 C 167 32.373, 167.470 33, 173.082 33 C 175.333 33, 176 32.543, 176 31 C 176 29.533, 175.333 29, 173.500 29 C 172.125 29, 171 28.550, 171 28 C 171 27.450, 171.900 27, 173 27 C 174.100 27, 175 26.355, 175 25.567 C 175 24.779, 174.100 23.849, 173 23.500 C 170.091 22.577, 170.544 20.847, 173.500 21.589 C 175.575 22.110, 176 21.858, 176 20.108 C 176 18.276, 175.410 18, 171.500 18 L 167 18 167 24.893 M 118.589 21.500 C 117.834 24.509, 116.371 24.746, 115.500 22 C 114.883 20.055, 112.972 19.362, 111.710 20.624 C 111.366 20.967, 111.966 22.974, 113.043 25.084 C 114.119 27.194, 115 30.336, 115 32.067 C 115 34.526, 115.346 35.081, 116.582 34.607 C 117.452 34.273, 118.352 34, 118.582 34 C 118.812 34, 119.010 32.763, 119.022 31.250 C 119.034 29.738, 119.934 26.538, 121.022 24.141 C 123.432 18.829, 123.429 19, 121.108 19 C 119.925 19, 118.982 19.936, 118.589 21.500 M 182 20.463 C 182 21.411, 182.900 22.423, 184 22.710 C 185.681 23.150, 186 24.074, 186 28.510 C 186 32.277, 186.429 33.951, 187.500 34.362 C 188.721 34.830, 189 33.919, 189 29.469 C 189 24.667, 189.244 24, 191 24 C 192.333 24, 193 23.333, 193 22 C 193 20.766, 192.330 19.996, 191.250 19.989 C 190.287 19.983, 187.813 19.699, 185.750 19.358 C 182.627 18.842, 182 19.027, 182 20.463 M 195 28.375 C 195 35.333, 195.175 36, 197 36 C 198.398 36, 199.009 35.323, 199.030 33.750 C 199.060 31.567, 199.094 31.560, 200.155 33.500 C 201.373 35.728, 203.934 38, 205.226 38 C 205.691 38, 205.608 37.136, 205.043 36.081 C 204.478 35.025, 204.283 32.212, 204.610 29.828 C 205.299 24.801, 203.511 22.452, 198.184 21.387 L 195 20.750 195 28.375 M 100.969 24.750 C 99.629 27.475, 99.614 27.479, 99.229 25.174 C 98.965 23.590, 98.361 23.031, 97.339 23.424 C 96.512 23.741, 95.648 24, 95.418 24 C 95.188 24, 95 27.150, 95 31 C 95 37.333, 95.190 38, 97 38 C 98.507 38, 99.008 37.322, 99.033 35.250 L 99.067 32.500 100.944 34.750 C 102.899 37.094, 106 37.802, 106 35.904 C 106 35.302, 105.066 33.497, 103.925 31.894 L 101.849 28.980 104.006 25.490 C 106.083 22.130, 106.092 22, 104.242 22 C 103.141 22, 101.744 23.173, 100.969 24.750 M 207.006 27.250 C 207.014 32.310, 208.898 37.875, 210.978 38.988 C 216.295 41.834, 219 39.163, 219 31.066 C 219 26.667, 218.737 26, 217 26 C 215.263 26, 215 26.667, 215 31.073 C 215 35.365, 214.730 36.095, 213.250 35.814 C 211.870 35.551, 211.437 34.268, 211.200 29.740 C 210.943 24.818, 210.622 24, 208.950 24 C 207.416 24, 207.001 24.692, 207.006 27.250 M 87 25.892 C 84.647 26.544, 84.483 27.035, 84.209 34.241 L 83.918 41.897 88.203 40.656 C 90.917 39.870, 92.617 38.752, 92.837 37.608 C 93.133 36.070, 92.724 35.902, 90.093 36.480 C 86.343 37.303, 85.782 35.344, 89.500 34.411 C 92.844 33.571, 92.685 31.230, 89.250 30.742 L 86.500 30.350 89.750 29.077 C 91.537 28.377, 93 27.173, 93 26.402 C 93 24.917, 91.103 24.755, 87 25.892 M 199 26.319 C 199 28.185, 200.631 29.406, 201.420 28.130 C 201.727 27.633, 201.308 26.671, 200.489 25.991 C 199.278 24.986, 199 25.047, 199 26.319 M 221 29 C 221 30.111, 221.667 31, 222.500 31 C 223.664 31, 224 32.321, 224 36.893 C 224 42.382, 224.815 44, 227.582 44 C 227.812 44, 228 41.477, 228 38.393 C 228 33.820, 228.277 32.892, 229.500 33.362 C 230.505 33.747, 231 33.318, 231 32.063 C 231 30.724, 229.662 29.732, 226.322 28.594 C 220.576 26.636, 221 26.604, 221 29 M 76.250 29.247 L 73 30.289 73 37.645 C 73 42.034, 73.416 45, 74.032 45 C 76.531 45, 82 41.964, 82 40.576 C 82 39.409, 81.236 39.179, 78.750 39.597 C 75.666 40.116, 75.599 40.063, 77.441 38.572 C 78.509 37.707, 79.746 37, 80.191 37 C 80.636 37, 81 36.276, 81 35.392 C 81 34.175, 80.391 33.936, 78.500 34.411 C 74.965 35.298, 75.382 33.411, 79 32.150 C 80.650 31.575, 82 30.406, 82 29.552 C 82 27.803, 80.927 27.746, 76.250 29.247 M 233 38.393 C 233 43.813, 233.374 45.930, 234.402 46.324 C 236.175 47.004, 237 46.190, 237 43.760 C 237 40.290, 240.447 42.161, 241 45.932 C 241.275 47.807, 242.063 49.527, 242.750 49.754 C 244.736 50.410, 244.487 35.401, 242.500 34.638 C 241.406 34.219, 241 34.760, 241 36.638 C 241 38.576, 240.608 39.064, 239.418 38.607 C 238.548 38.273, 237.648 38, 237.418 38 C 237.188 38, 237 36.965, 237 35.700 C 237 33.425, 235.349 31, 233.800 31 C 233.360 31, 233 34.327, 233 38.393 M 63.073 35.635 C 60.061 39.463, 60.381 41.926, 63.984 42.647 C 65.625 42.975, 66.699 43.678, 66.371 44.209 C 66.043 44.740, 64.954 44.960, 63.952 44.698 C 62.277 44.260, 61 45.724, 61 48.082 C 61 50.806, 68.354 47.713, 69.890 44.343 C 71.548 40.704, 71.303 40.035, 67.750 38.491 C 65.174 37.371, 64.945 37.070, 66.643 37.039 C 67.822 37.018, 69.059 36.288, 69.393 35.418 C 70.287 33.090, 70.219 33, 67.573 33 C 66.141 33, 64.295 34.081, 63.073 35.635 M 19.459 42.750 C 15.826 51.654, 15.002 63.840, 17.689 68.929 C 18.685 70.815, 20.744 73.270, 22.265 74.386 L 25.031 76.414 27.130 74.314 C 29.923 71.522, 31.028 64.861, 29.880 57.735 C 28.695 50.380, 24.185 36, 23.063 36 C 22.595 36, 20.973 39.038, 19.459 42.750 M 50.989 41.250 C 48.398 45.500, 48.478 47.867, 51.250 48.915 C 54.533 50.156, 55 49.474, 55 43.441 C 55 37.218, 53.835 36.582, 50.989 41.250 M 273.433 46.250 C 270.305 56.016, 269.167 70.130, 271.204 73.902 C 273.504 78.164, 275.574 78.743, 278.584 75.967 C 285.490 69.596, 285.936 57.198, 279.778 42.750 C 278.665 40.138, 277.376 38, 276.915 38 C 276.453 38, 274.887 41.712, 273.433 46.250 M 143.925 39.868 C 141.598 40.439, 141.429 40.800, 142.168 43.614 L 142.987 46.727 152.367 46.727 L 161.748 46.727 162.750 43.464 C 163.709 40.340, 163.623 40.175, 160.751 39.600 C 157.056 38.861, 147.404 39.015, 143.925 39.868 M 123 41.097 C 118.875 41.557, 113.971 42.207, 112.101 42.540 L 108.703 43.146 115.101 49.645 C 123.944 58.626, 124.344 58.783, 128.665 54.989 C 130.627 53.266, 133.868 51.115, 135.866 50.208 C 137.865 49.301, 139.644 48.477, 139.819 48.377 C 139.995 48.277, 139.586 46.351, 138.911 44.097 C 137.519 39.452, 137.599 39.467, 123 41.097 M 166.098 43.149 C 164.469 47.820, 164.681 48.478, 168.384 50.243 C 170.244 51.130, 173.341 53.239, 175.266 54.928 C 177.190 56.618, 179.083 58, 179.472 58 C 180.560 58, 196.088 43.755, 195.567 43.234 C 194.996 42.663, 174.625 40.077, 170.348 40.033 C 167.699 40.005, 167.020 40.503, 166.098 43.149 M 93.500 46.092 C 84.207 48.353, 70.676 52.680, 66.840 54.616 C 64.473 55.810, 64.142 56.624, 63.840 61.993 C 63.575 66.697, 63.831 68.128, 65 68.482 C 67.773 69.322, 111.913 77, 113.968 77 C 115.282 77, 116 76.343, 116 75.141 C 116 74.118, 117.344 70.631, 118.987 67.391 C 120.630 64.151, 121.980 61.166, 121.987 60.758 C 121.998 60.119, 102.244 43.874, 101.699 44.072 C 101.589 44.112, 97.900 45.021, 93.500 46.092 M 192.968 51.611 C 187.761 55.757, 183.147 59.492, 182.715 59.910 C 182.283 60.329, 183.295 63.557, 184.964 67.085 C 186.633 70.613, 187.999 74.287, 187.999 75.250 C 188 77.619, 189.597 77.523, 207.931 74.055 C 216.494 72.435, 227.662 70.363, 232.750 69.451 L 242 67.792 241.985 63.646 C 241.962 57.156, 240.281 54.977, 233.280 52.368 C 228.006 50.402, 214.210 46.627, 204.968 44.621 C 202.912 44.175, 200.658 45.487, 192.968 51.611 M 94.469 51.823 C 93.132 54.320, 91.698 55.596, 90 55.799 C 84.816 56.419, 84.524 56.893, 87.444 59.942 C 89.887 62.492, 90.124 63.304, 89.502 66.990 L 88.798 71.156 91.849 69.578 C 93.528 68.710, 95.620 68, 96.500 68 C 97.380 68, 99.472 68.710, 101.151 69.578 L 104.202 71.156 103.498 66.990 C 102.876 63.304, 103.113 62.492, 105.556 59.942 C 108.473 56.897, 108.183 56.423, 103.027 55.799 C 101.384 55.600, 99.863 54.266, 98.496 51.823 L 96.438 48.145 94.469 51.823 M 203.748 52.401 C 202.408 55.213, 201.405 55.925, 197.968 56.505 L 193.809 57.208 196.776 60.354 C 199.264 62.992, 199.665 64.106, 199.262 67.250 C 198.718 71.496, 199.050 71.674, 203.067 69.301 C 205.773 67.703, 206.154 67.703, 209.505 69.301 C 211.465 70.236, 213.207 71, 213.377 71 C 213.546 71, 213.382 69.313, 213.011 67.250 C 212.424 63.983, 212.722 63.086, 215.328 60.287 L 218.320 57.075 214.076 56.396 C 210.542 55.831, 209.565 55.157, 208.231 52.359 C 207.350 50.511, 206.346 49, 206 49 C 205.654 49, 204.641 50.531, 203.748 52.401 M 139.357 52.082 C 123.900 58.026, 114.807 76.505, 119.461 92.513 C 123.841 107.582, 136.493 117.168, 152 117.168 C 165.307 117.168, 176.269 110.293, 182.213 98.218 C 185.114 92.327, 185.497 90.599, 185.472 83.521 C 185.449 76.894, 184.961 74.457, 182.664 69.500 C 179.125 61.859, 171.727 54.790, 164.401 52.049 C 157.187 49.350, 146.424 49.364, 139.357 52.082 M 140.462 58.366 C 131.211 62.673, 124 73.684, 124 83.500 C 124 89.380, 126.888 96.591, 131.207 101.498 C 142.516 114.346, 161.484 114.346, 172.793 101.498 C 182.196 90.816, 182.196 76.184, 172.793 65.502 C 164.562 56.151, 151.438 53.255, 140.462 58.366 M 151.171 63.524 C 150.527 64.938, 150 67.602, 150 69.444 C 150 72.336, 150.964 73.648, 157.050 79.045 C 161.433 82.930, 163.897 85.827, 163.562 86.700 C 163.265 87.473, 163.467 87.829, 164.011 87.493 C 164.555 87.157, 165 87.674, 165 88.641 C 165 90.012, 165.266 90.134, 166.203 89.197 C 166.865 88.535, 167.478 85.732, 167.566 82.968 C 167.653 80.203, 167.503 78.164, 167.231 78.436 C 166.497 79.170, 158.500 72.075, 158.500 70.690 C 158.500 70.036, 157.975 69.500, 157.333 69.500 C 155.653 69.500, 154.971 68.601, 153.579 64.551 L 152.342 60.954 151.171 63.524 M 144.369 70.085 C 143.059 71.722, 142.027 79.101, 143.209 78.371 C 143.950 77.913, 144.416 79.468, 144.094 81.324 C 144.015 81.778, 144.355 81.899, 144.848 81.594 C 145.854 80.972, 155.006 90.274, 156.935 93.879 C 157.620 95.158, 157.945 97.103, 157.658 98.201 C 157.370 99.299, 157.401 99.932, 157.726 99.608 C 158.050 99.283, 158.930 99.527, 159.681 100.150 C 160.772 101.056, 160.907 100.921, 160.353 99.477 C 159.839 98.138, 160.002 97.883, 160.985 98.490 C 161.838 99.018, 162.069 98.921, 161.635 98.219 C 161.264 97.619, 161.371 95.303, 161.873 93.072 C 162.400 90.722, 162.409 89.247, 161.892 89.567 C 161.401 89.870, 161 89.680, 161 89.144 C 161 88.608, 159.677 86.920, 158.059 85.394 C 156.442 83.867, 155.386 82.184, 155.714 81.654 C 156.041 81.125, 155.828 80.989, 155.239 81.352 C 153.707 82.299, 147.773 77.033, 148.433 75.313 C 148.777 74.416, 148.552 74.159, 147.819 74.612 C 147.038 75.095, 146.875 74.769, 147.319 73.612 C 147.682 72.666, 147.566 72.150, 147.060 72.463 C 146.556 72.775, 145.998 72.049, 145.821 70.850 C 145.556 69.047, 145.305 68.914, 144.369 70.085 M 63.004 84.625 C 63.011 101.503, 64.233 120, 65.341 120 C 66.147 120, 116.982 99.255, 117.668 98.646 C 117.760 98.564, 117.198 96.037, 116.418 93.031 C 115.638 90.024, 115 85.942, 115 83.960 L 115 80.355 91.750 78.082 C 78.963 76.831, 67.263 75.570, 65.750 75.279 L 63 74.750 63.004 84.625 M 214.500 77.555 C 203.500 78.809, 193.262 79.872, 191.750 79.917 C 189.185 79.994, 189 80.292, 189 84.341 C 189 86.729, 188.366 90.790, 187.591 93.365 L 186.181 98.049 189.341 99.359 C 222.092 112.943, 240.234 120.099, 240.709 119.624 C 241.034 119.299, 241.520 109.126, 241.789 97.017 L 242.278 75 238.389 75.137 C 236.250 75.213, 225.500 76.301, 214.500 77.555 M 138.581 80.250 C 138.262 81.213, 137.773 82.716, 137.496 83.591 C 136.666 86.214, 139.781 91.306, 144.170 94.500 C 146.437 96.150, 149.576 99.501, 151.146 101.946 C 152.716 104.391, 154 105.827, 154 105.137 C 154 104.447, 154.338 104.091, 154.750 104.345 C 155.162 104.600, 155.500 103.095, 155.500 101 C 155.500 98.905, 155.162 97.400, 154.750 97.655 C 154.338 97.909, 154 97.501, 154 96.746 C 154 95.992, 152.666 94.096, 151.036 92.534 C 149.405 90.972, 148.350 89.243, 148.690 88.692 C 149.030 88.142, 148.863 87.967, 148.317 88.304 C 146.762 89.265, 143.168 86.232, 141.073 82.188 C 139.554 79.255, 139.044 78.858, 138.581 80.250 M 220.298 84.324 C 218.389 88.252, 217.726 88.773, 214 89.273 C 211.709 89.580, 209.534 90.139, 209.167 90.513 C 208.800 90.888, 210.010 92.461, 211.856 94.009 C 215.095 96.725, 215.188 97.001, 214.507 101.946 L 213.803 107.070 218.222 104.923 L 222.641 102.776 226.947 104.973 L 231.253 107.169 230.547 102.464 C 229.888 98.072, 230.058 97.535, 233.102 94.394 C 234.896 92.544, 236.094 90.760, 235.764 90.431 C 235.435 90.101, 233.305 89.582, 231.031 89.277 C 227.362 88.785, 226.647 88.229, 224.664 84.328 L 222.431 79.934 220.298 84.324 M 43.435 83.378 C 31.886 88.756, 25.586 98.545, 28.607 106.418 C 29.953 109.927, 36.715 107.367, 41.999 101.348 C 45.050 97.874, 49.939 88.541, 51.479 83.250 C 52.353 80.251, 50.072 80.288, 43.435 83.378 M 80.535 84.922 C 78.908 88.531, 78.369 88.899, 73.785 89.530 L 68.804 90.215 72.330 93.857 C 75.687 97.325, 75.815 97.716, 75.015 102 C 74.552 104.475, 74.330 106.658, 74.521 106.851 C 74.712 107.044, 76.735 106.153, 79.015 104.871 L 83.162 102.541 87.242 104.776 C 89.487 106.005, 91.418 106.896, 91.534 106.755 C 91.650 106.615, 91.434 104.475, 91.053 102 C 90.410 97.821, 90.604 97.240, 93.778 93.857 L 97.196 90.215 92.215 89.530 C 87.631 88.899, 87.092 88.531, 85.465 84.922 C 84.492 82.765, 83.383 81, 83 81 C 82.617 81, 81.508 82.765, 80.535 84.922 M 252.004 89.250 C 252.010 98.471, 261.367 110, 268.843 110 C 272.900 110, 273.244 101.294, 269.409 95.652 C 266.858 91.897, 255.970 84, 253.345 84 C 252.389 84, 252.001 85.517, 252.004 89.250 M 92.717 114.430 C 78.536 121.710, 66.502 128.098, 65.974 128.626 C 64.846 129.754, 67.861 149.361, 71.030 161.500 C 72.178 165.900, 74.931 173.269, 77.148 177.875 C 80.489 184.819, 81.397 186.015, 82.460 184.875 C 83.165 184.119, 94.413 168.077, 107.456 149.226 L 131.170 114.951 125.585 108.919 C 122.513 105.601, 120 102.462, 120 101.943 C 120 101.424, 119.662 101.044, 119.250 101.097 C 118.838 101.150, 106.898 107.150, 92.717 114.430 M 184 102.060 C 184 102.643, 181.697 105.555, 178.882 108.531 C 176.067 111.508, 174.007 114.518, 174.303 115.221 C 175.489 118.032, 222.659 184.386, 223.723 184.741 C 225.270 185.257, 231.393 172.242, 233.953 163 C 236.164 155.016, 240 134.321, 240 130.374 C 240 128.277, 236.925 126.469, 213.007 114.504 C 198.161 107.077, 185.561 101, 185.007 101 C 184.453 101, 184 101.477, 184 102.060 M 37.078 114.750 C 29.801 122.065, 27.146 127.982, 28.379 134.144 C 29.686 140.679, 32.231 141.492, 37.339 137.007 C 41.333 133.500, 44.562 126.534, 45.454 119.500 C 45.803 116.750, 46.314 113.037, 46.589 111.250 C 47.380 106.124, 44.666 107.123, 37.078 114.750 M 1 115.839 C 1 127.272, 5.510 136.670, 13.022 140.892 C 15.219 142.127, 18.025 142.994, 19.258 142.818 C 22.444 142.366, 22.881 135.450, 20.088 129.681 C 17.936 125.237, 6.123 111.672, 2.904 109.949 C 1.117 108.992, 1 109.355, 1 115.839 M 253.418 112.250 C 253.668 113.487, 254.137 117.140, 254.459 120.367 C 255.224 128.029, 258.414 135.278, 262.661 139.007 C 266.731 142.580, 268.367 142.742, 270.443 139.777 C 274.418 134.102, 271.539 125.414, 262.812 116.750 C 255.735 109.724, 252.602 108.223, 253.418 112.250 M 127.347 126.781 C 123.962 132.677, 113.723 150.246, 104.592 165.824 C 88.988 192.444, 88.079 194.275, 89.473 196.266 C 91.848 199.655, 103.925 211.790, 111.086 217.980 C 121.119 226.654, 145.332 243.008, 146.459 241.871 C 146.661 241.667, 146.978 233.272, 147.163 223.215 L 147.500 204.929 152.500 205.215 L 157.500 205.500 157.845 220 C 158.035 227.975, 158.485 236.199, 158.845 238.276 L 159.500 242.052 169.275 236.089 C 174.651 232.810, 182.976 227.103, 187.775 223.407 C 197.562 215.868, 217 196.642, 217 194.500 C 217 193.483, 173.540 118.846, 171.345 116.094 C 171.166 115.870, 169.248 116.486, 167.082 117.463 L 163.144 119.239 165.138 121.369 L 167.132 123.500 160.316 124.073 L 153.500 124.647 161.500 124.839 C 170.209 125.048, 173.139 126.066, 171.500 128.316 C 163.080 139.876, 162.946 140, 158.906 140 C 156.758 140, 155 140.450, 155 141 C 155 141.550, 156.575 142, 158.500 142 C 160.650 142, 161.988 142.482, 161.968 143.250 C 161.914 145.363, 159.381 147.999, 157.390 148.015 C 155.909 148.027, 155.802 148.222, 156.894 148.913 C 157.910 149.556, 158.109 150.914, 157.630 153.913 C 157.018 157.742, 157.165 158.107, 159.736 159.126 C 161.256 159.729, 164.590 161.127, 167.145 162.233 C 169.988 163.463, 173.164 164.083, 175.332 163.830 L 178.875 163.416 187.363 178.958 L 195.851 194.500 192.011 194.803 C 187.880 195.130, 180.910 193.456, 171.804 189.950 C 165.049 187.350, 160.552 187.823, 156.053 191.609 L 153.047 194.138 149.445 191.390 C 144.576 187.676, 138.684 187.653, 129.731 191.312 C 123.208 193.978, 110 196.116, 110 194.506 C 110 194.075, 112.974 188.359, 116.609 181.804 C 120.244 175.248, 123.001 169.668, 122.736 169.402 C 122.293 168.960, 108 194.476, 108 195.709 C 108 196.007, 111.713 196.041, 116.250 195.784 C 122.163 195.449, 126.262 194.563, 130.720 192.658 C 138.434 189.361, 143.587 189.250, 148.102 192.282 C 150.591 193.953, 151.584 195.425, 151.813 197.782 L 152.127 201 127.528 201 L 102.930 201 108.185 191.250 C 119.343 170.550, 120.590 168.500, 122.023 168.500 C 122.835 168.500, 124.077 167.488, 124.782 166.250 C 125.776 164.506, 126.962 164, 130.062 164 C 132.261 164, 136.733 162.875, 140 161.500 C 143.267 160.125, 146.570 159, 147.341 159 C 148.470 159, 148.570 158.079, 147.855 154.255 C 147.239 150.957, 147.306 149.398, 148.074 149.142 C 148.682 148.939, 148.126 148.251, 146.839 147.612 C 145.553 146.973, 144.356 145.449, 144.180 144.225 C 143.910 142.339, 144.328 142, 146.930 142 C 151.590 142, 150.599 140.158, 145.750 139.807 C 142.431 139.567, 141.530 139.119, 141.637 137.761 C 141.712 136.804, 141.422 136.239, 140.992 136.505 C 139.989 137.125, 138.809 134.119, 139.571 132.885 C 139.889 132.371, 139.778 132.057, 139.324 132.188 C 137.303 132.769, 133.891 129.776, 134.189 127.682 C 134.473 125.688, 135.231 125.452, 143 124.936 C 151.419 124.378, 151.438 124.371, 145 124.171 C 141.425 124.060, 138.950 123.639, 139.500 123.235 C 141.902 121.470, 141.011 119.032, 137.415 117.529 C 135.402 116.688, 133.698 116.014, 133.628 116.031 C 133.558 116.049, 130.731 120.886, 127.347 126.781 M 44.041 139.606 C 36.499 148.196, 33.092 160.409, 36.434 166.872 C 39.261 172.339, 40.648 172.653, 44.398 168.676 C 48.838 163.969, 50.467 157.207, 49.665 146.809 C 48.816 135.799, 48.142 134.936, 44.041 139.606 M 251.721 139.286 C 251.374 140.190, 250.792 144.219, 250.427 148.240 C 249.486 158.629, 251.205 166.015, 255.665 170.743 L 259.185 174.476 262.093 171.222 C 266.121 166.714, 266.132 159.865, 262.123 151.500 C 258.398 143.726, 252.620 136.941, 251.721 139.286 M 2.620 148.750 C 3.790 153.634, 8.848 164.020, 11.988 167.984 C 15.695 172.665, 22.665 176.253, 27.204 175.817 C 29.936 175.554, 30.553 175.042, 30.809 172.826 C 31.249 169.019, 27.777 162.827, 22.784 158.513 C 18.627 154.920, 4.346 146, 2.752 146 C 2.317 146, 2.258 147.238, 2.620 148.750 M 288.006 153.176 C 277.623 159.565, 271.522 165.525, 269.933 170.830 C 268.291 176.311, 269.133 178, 273.508 178 C 282.485 178, 290.531 169.972, 295.844 155.712 C 298.176 149.453, 298.433 148, 297.208 148 C 296.773 148, 292.632 150.329, 288.006 153.176 M 140 162.976 C 137.525 164.028, 133.638 164.913, 131.361 164.944 C 127.232 165, 127.214 165.017, 123.139 172.750 C 120.892 177.012, 117.436 183.377, 115.458 186.892 L 111.861 193.285 118.181 192.761 C 121.808 192.460, 127.002 191.121, 130.374 189.618 C 137.020 186.657, 142.408 186.308, 147.654 188.500 C 149.629 189.325, 151.427 190, 151.650 190 C 151.873 190, 151.930 183.588, 151.777 175.750 L 151.500 161.500 148 161.282 C 146.075 161.162, 142.475 161.924, 140 162.976 M 154 175.500 C 154 183.475, 154.338 189.984, 154.750 189.965 C 155.162 189.945, 156.625 189.286, 158 188.500 C 161.976 186.227, 168.187 186.735, 176.341 190 C 180.854 191.807, 185.655 193, 188.417 193 C 190.937 193, 193 192.840, 193 192.645 C 193 192.450, 189.701 186.262, 185.669 178.895 L 178.337 165.500 173.419 164.900 C 170.713 164.570, 166.531 163.558, 164.124 162.650 C 161.718 161.743, 158.455 161, 156.874 161 L 154 161 154 175.500 M 116 170 C 114.825 171.650, 113.246 173, 112.491 173 C 110.559 173, 109.499 175.072, 110.966 175.979 C 112.767 177.092, 109.498 183, 107.081 183 C 106.054 183, 104.955 183.675, 104.638 184.500 C 104.279 185.437, 104.646 186, 105.618 186 C 106.803 186, 106.199 187.807, 103.087 193.577 C 100.839 197.744, 99 201.794, 99 202.577 C 99 203.790, 106.961 204, 153 204 C 191.230 204, 207 203.682, 207 202.912 C 207 202.314, 205.361 198.893, 203.357 195.310 C 200.784 190.709, 200.059 188.581, 200.891 188.068 C 202.589 187.018, 201.122 184, 198.913 184 C 197.735 184, 196.284 182.516, 195 180 C 193.878 177.800, 193.418 176, 193.980 176 C 195.848 176, 195.031 173.821, 192.960 173.279 C 191.838 172.986, 190.251 171.453, 189.434 169.873 C 188.617 168.293, 187.215 167, 186.319 167 C 184.854 167, 184.844 167.176, 186.212 168.750 C 188.244 171.086, 204 200.417, 204 201.864 C 204 202.697, 190.282 203, 152.500 203 C 124.175 203, 101.004 202.662, 101.009 202.250 C 101.014 201.838, 105.244 193.738, 110.409 184.250 C 115.574 174.762, 119.426 167, 118.968 167 C 118.511 167, 117.175 168.350, 116 170 M 187.940 177.500 C 190.874 183, 194.417 189.473, 195.812 191.885 L 198.348 196.269 189.924 195.793 C 183.831 195.448, 179.779 194.581, 175.280 192.658 C 167.065 189.147, 161.193 189.125, 157.077 192.589 C 154.939 194.388, 154 196.066, 154 198.089 L 154 201 178 201 C 191.200 201, 202 200.710, 202 200.357 C 202 198.869, 185.815 170.095, 184.281 168.855 C 183.359 168.110, 185.005 172, 187.940 177.500 M 13 183.372 C 13 185.770, 22.654 199.636, 26.144 202.250 C 31.489 206.254, 35.614 208, 39.728 208 C 55.449 208, 44.825 193.477, 22.927 185.032 C 14.058 181.612, 13 181.435, 13 183.372 M 276.909 187.336 C 266.117 191.443, 257.193 197.449, 254.258 202.580 L 252.016 206.500 254.119 208.250 C 259.196 212.475, 270.070 209.124, 277.100 201.166 C 283.450 193.979, 288.822 183.919, 286.250 184.033 C 285.837 184.051, 281.634 185.538, 276.909 187.336 M 92 210.500 C 93.292 211.875, 94.574 213, 94.849 213 C 95.124 213, 94.292 211.875, 93 210.500 C 91.708 209.125, 90.426 208, 90.151 208 C 89.876 208, 90.708 209.125, 92 210.500 M 208.405 214.250 L 206.500 216.500 208.750 214.595 C 210.864 212.805, 211.455 212, 210.655 212 C 210.465 212, 209.453 213.012, 208.405 214.250 M 22.010 231.035 C 23.194 235.164, 26.697 240.670, 28.605 241.402 C 29.891 241.895, 29.532 242.870, 26.584 246.885 C 24.613 249.571, 23 252.181, 23 252.686 C 23 255.646, 43.337 259.302, 53.500 258.169 L 59.500 257.500 59.787 248.871 C 60.147 238.067, 61.588 236.144, 68.089 237.795 C 76.145 239.839, 77.739 236.119, 70.250 232.752 C 66.089 230.881, 63.392 230.586, 48.500 230.376 C 39.150 230.244, 29.928 229.656, 28.007 229.068 C 22.002 227.232, 21.012 227.557, 22.010 231.035 M 278.500 229.144 C 276.850 229.678, 267.850 230.228, 258.500 230.366 C 243.623 230.585, 240.907 230.883, 236.750 232.752 C 229.710 235.917, 230.853 240.050, 238.186 237.947 C 245.600 235.820, 247 237.499, 247 248.512 C 247 253.462, 247.444 257.157, 248.087 257.554 C 249.855 258.647, 268.093 258.304, 273.341 257.080 C 276.004 256.459, 279.728 255.305, 281.618 254.515 L 285.054 253.080 281.527 248.170 C 277.643 242.764, 277.289 241.487, 279.448 240.658 C 281.037 240.049, 283.794 235.206, 285.055 230.808 C 285.765 228.331, 285.603 228.010, 283.680 228.086 C 282.481 228.133, 280.150 228.609, 278.500 229.144 M 32.732 243.250 C 32.460 245.037, 32.296 246.548, 32.369 246.606 C 33.335 247.388, 39 247.703, 39 246.975 C 39 246.439, 37.987 245.971, 36.750 245.937 C 34.562 245.875, 34.569 245.844, 37 244.832 C 39.382 243.839, 39.405 243.751, 37.500 242.965 C 35.618 242.189, 35.637 242.136, 37.809 242.070 C 41.118 241.970, 39.448 240, 36.054 240 C 33.633 240, 33.156 240.466, 32.732 243.250 M 49.166 240.876 C 48.092 241.557, 48.141 241.840, 49.416 242.329 C 50.287 242.664, 51 244.076, 51 245.469 C 51 246.861, 51.450 248, 52 248 C 52.550 248, 53 246.650, 53 245 C 53 243.350, 53.450 242, 54 242 C 54.550 242, 55 241.550, 55 241 C 55 239.787, 51.018 239.702, 49.166 240.876 M 271.250 240.662 C 270.563 240.940, 270 242.082, 270 243.200 C 270 244.741, 270.484 245.107, 272 244.710 C 273.100 244.423, 274 244.595, 274 245.094 C 274 245.592, 272.988 246.030, 271.750 246.068 L 269.500 246.135 271.793 247.239 C 273.610 248.115, 274.412 248.017, 275.661 246.768 C 277.577 244.851, 276.659 243.041, 273.691 242.884 C 271.999 242.794, 271.899 242.664, 273.250 242.311 C 274.212 242.059, 275 241.436, 275 240.927 C 275 239.944, 273.323 239.826, 271.250 240.662 M 40.786 244.006 C 40.268 247.534, 40.590 248, 43.544 248 C 46.099 248, 48.653 245.522, 47.092 244.557 C 46.540 244.215, 46.341 243.275, 46.651 242.468 C 47.069 241.379, 46.442 241, 44.220 241 C 41.658 241, 41.164 241.432, 40.786 244.006 M 264.250 241.662 C 262.150 242.510, 262.721 247.777, 264.991 248.497 C 267.825 249.397, 269.166 248.224, 268.813 245.154 C 268.404 241.600, 267.023 240.543, 264.250 241.662 M 250.208 242.676 C 249.153 243.100, 249.153 243.481, 250.208 244.760 C 251.232 246.001, 251.241 246.412, 250.250 246.746 C 247.809 247.567, 249.049 249, 252.200 249 C 254.689 249, 255.133 248.733, 254.200 247.800 C 253.540 247.140, 253 245.565, 253 244.300 C 253 241.981, 252.568 241.729, 250.208 242.676 M 255.482 243.030 C 255.093 243.659, 255.240 244.640, 255.809 245.209 C 256.378 245.778, 256.592 246.900, 256.284 247.702 C 255.859 248.811, 256.415 249.081, 258.612 248.830 C 261.081 248.548, 261.500 248.065, 261.500 245.500 C 261.500 242.997, 261.060 242.449, 258.844 242.193 C 257.384 242.024, 255.871 242.400, 255.482 243.030 M 181.500 248.070 L 171.500 252.801 179 252.359 C 193.692 251.493, 197.567 250.897, 195.612 249.802 C 194.626 249.251, 193.297 247.571, 192.660 246.070 L 191.500 243.340 181.500 248.070 M 61.221 257.238 C 61.495 270.254, 61.542 270.496, 64 271.664 C 70.576 274.789, 95.780 278.254, 129.622 280.684 C 152.512 282.328, 154.962 282.328, 177.622 280.680 C 211.427 278.222, 236.469 274.768, 243 271.664 C 245.458 270.496, 245.505 270.254, 245.779 257.238 C 245.932 249.957, 245.932 244, 245.779 244.001 C 245.626 244.001, 243.085 244.919, 240.133 246.041 C 227.479 250.850, 190.643 254.411, 153.500 254.416 C 116.921 254.420, 79.405 250.806, 66.971 246.080 C 63.962 244.937, 61.374 244.001, 61.221 244.001 C 61.068 244, 61.068 249.957, 61.221 257.238 M 236.500 251.160 C 234.300 251.684, 231.488 252.322, 230.250 252.576 C 228.140 253.009, 228 253.542, 228 261.133 L 228 269.227 232.750 268.542 C 240.732 267.390, 242 266.893, 242 264.911 C 242 263.267, 241.451 263.114, 237.500 263.655 C 231.948 264.416, 231.357 262.587, 236.743 261.313 C 239.123 260.751, 240.614 259.766, 240.837 258.610 C 241.145 257.007, 240.705 256.874, 237.093 257.484 C 231.485 258.432, 231.809 256.537, 237.500 255.104 C 240.942 254.238, 242 253.504, 242 251.986 C 242 249.795, 242.140 249.816, 236.500 251.160 M 69.101 254.187 C 68.608 255.459, 67.282 258.820, 66.154 261.655 L 64.104 266.809 66.777 267.480 C 68.375 267.881, 69.594 267.719, 69.808 267.075 C 70.324 265.528, 73.609 265.752, 75.308 267.451 C 76.106 268.248, 77.988 269.210, 79.490 269.587 C 82.570 270.360, 82.654 271.308, 78.570 259.166 C 76.488 252.977, 76.101 252.478, 73.163 252.187 C 70.626 251.935, 69.821 252.332, 69.101 254.187 M 219 254.109 C 209.796 255.573, 209 255.890, 209 258.091 C 209 259.741, 209.539 260.080, 211.750 259.822 C 214.440 259.507, 214.507 259.626, 214.800 265.250 C 215.079 270.604, 215.269 271, 217.550 271 C 219.899 271, 220 270.731, 220 264.500 C 220 258.233, 220.090 258, 222.500 258 C 224.500 258, 225 257.500, 225 255.500 C 225 254.125, 224.887 253.053, 224.750 253.117 C 224.613 253.181, 222.025 253.628, 219 254.109 M 84 261.875 C 84 266.279, 84.353 270.100, 84.785 270.367 C 85.216 270.634, 88.366 271.168, 91.785 271.555 C 97.569 272.210, 98 272.120, 98 270.257 C 98 268.699, 97.124 268.115, 94.048 267.624 L 90.095 266.992 89.798 260.746 C 89.512 254.761, 89.385 254.487, 86.750 254.184 L 84 253.867 84 261.875 M 100.725 256.609 C 99.665 257.668, 99.838 271.782, 100.918 272.449 C 101.423 272.762, 104.384 273.126, 107.498 273.258 C 114.172 273.543, 116 271.932, 116 265.763 C 116 261.036, 112.463 257.007, 108.295 256.986 C 106.758 256.979, 104.589 256.728, 103.475 256.428 C 102.361 256.129, 101.123 256.210, 100.725 256.609 M 200.500 256.962 C 197.807 257.455, 197.225 258.278, 194.813 265.006 C 193.335 269.128, 192.097 272.837, 192.063 273.250 C 191.943 274.681, 197.066 273.992, 197.638 272.500 C 198.315 270.737, 203.653 270.459, 204.219 272.158 C 204.461 272.883, 205.597 273.067, 207.255 272.651 L 209.905 271.986 207.377 265.269 C 204.039 256.400, 203.978 256.326, 200.500 256.962 M 72 260 C 72 261.100, 72.633 262, 73.406 262 C 74.320 262, 74.630 261.300, 74.290 260 C 74.002 258.900, 73.369 258, 72.883 258 C 72.398 258, 72 258.900, 72 260 M 119.210 266.250 L 119.500 274.500 126.832 274.795 C 133.431 275.061, 134.130 274.911, 133.824 273.295 C 133.577 271.994, 132.385 271.413, 129.492 271.183 C 123.880 270.738, 122.534 269, 127.800 269 C 131.290 269, 132 268.672, 132 267.060 C 132 265.541, 131.188 265.054, 128.250 264.810 C 123.328 264.403, 124.337 262.500, 129.475 262.500 C 132.326 262.500, 133.540 262.046, 133.771 260.892 C 134.016 259.665, 132.984 259.133, 129.406 258.642 C 126.829 258.289, 123.415 258, 121.820 258 L 118.919 258 119.210 266.250 M 177 259.294 C 173.102 261.265, 171.522 265.460, 172.919 270.123 C 174.252 274.572, 175.808 275.215, 184 274.703 L 189.500 274.359 189.805 269.679 C 190.086 265.369, 189.928 265.001, 187.805 265.014 C 183.936 265.037, 181 266.160, 181 267.617 C 181 268.377, 181.990 269, 183.200 269 C 184.781 269, 185.095 269.305, 184.315 270.085 C 183.719 270.681, 182.166 271.019, 180.865 270.835 C 178.909 270.558, 178.500 269.914, 178.500 267.109 C 178.500 262.895, 181.012 260.902, 183.983 262.757 C 186.372 264.249, 190 264.396, 190 263 C 190 262.450, 189.100 261.100, 188 260 C 185.708 257.708, 180.763 257.391, 177 259.294 M 137 267.500 C 137 275.900, 137.029 276, 139.500 276 C 141.611 276, 142 275.533, 142 273 C 142 271.350, 142.438 270, 142.974 270 C 143.510 270, 144.647 271.350, 145.500 273 C 146.693 275.308, 147.734 276, 150.010 276 L 152.968 276 151.351 272.609 C 149.884 269.533, 149.878 269.012, 151.291 266.994 C 154.517 262.390, 150.920 259, 142.809 259 L 137 259 137 267.500 M 157.223 260.557 C 153.784 262.965, 154.289 266.817, 158.250 268.403 C 166.112 271.552, 165.765 271.307, 163.033 271.774 C 161.676 272.006, 160.401 271.702, 160.199 271.098 C 159.650 269.450, 155 269.745, 155 271.429 C 155 274.122, 158.047 276, 162.416 276 C 167.358 276, 170 273.794, 170 269.667 C 170 267.342, 169.412 266.835, 165.500 265.789 C 163.025 265.127, 161 264.201, 161 263.731 C 161 263.262, 163.025 263.181, 165.500 263.552 C 170.353 264.280, 171.183 263.380, 168.171 260.655 C 165.866 258.569, 160.134 258.517, 157.223 260.557 M 106 265.070 C 106 268.718, 106.233 269.106, 108.250 268.820 C 112.218 268.256, 111.408 261, 107.378 261 C 106.433 261, 106 262.280, 106 265.070 M 199.773 264.408 C 199.436 266.171, 199.713 267, 200.639 267 C 202.170 267, 202.398 265.176, 201.119 263.158 C 200.498 262.178, 200.135 262.515, 199.773 264.408 M 142 264.430 C 142 265.451, 142.903 266, 144.583 266 C 147.716 266, 147.373 263.652, 144.172 263.180 C 142.729 262.968, 142 263.388, 142 264.430" stroke="none" fill="#fcd708" fill-rule="evenodd"/><path d="M 127 11.695 C 103.868 14.175, 64.699 25.301, 58.985 31.015 C 56.542 33.458, 55.569 57.254, 56.287 96.992 C 56.867 129.086, 58.398 143.975, 62.954 161.819 C 67.151 178.259, 75.375 192.031, 90.376 207.745 C 105 223.064, 119.946 234.349, 141.715 246.509 L 151.931 252.215 161.715 246.997 C 181.721 236.327, 198.904 223.872, 212.794 209.970 C 240.428 182.314, 247.758 159.834, 249.632 97 C 249.971 85.605, 249.735 66.732, 249.099 54.505 C 248.133 35.945, 247.685 32.253, 246.227 30.864 C 244.083 28.819, 228.840 22.814, 217.327 19.478 C 206.092 16.222, 191.763 13.330, 180.500 12.044 C 172.136 11.089, 134.918 10.846, 127 11.695 M 140 18.883 C 140 19.926, 140.893 21, 142 21.290 C 143.670 21.726, 144 22.654, 144 26.906 C 144 30.767, 144.363 32, 145.500 32 C 146.648 32, 147 30.735, 147 26.617 C 147 22.074, 147.312 21.152, 149 20.710 C 150.100 20.423, 151 19.470, 151 18.594 C 151 17.329, 149.866 17, 145.500 17 C 140.780 17, 140 17.267, 140 18.883 M 153 24.500 C 153 30.346, 153.316 32, 154.434 32 C 155.254 32, 156.002 30.824, 156.184 29.250 C 156.411 27.272, 157.062 26.500, 158.500 26.500 C 159.938 26.500, 160.589 27.272, 160.816 29.250 C 160.998 30.824, 161.746 32, 162.566 32 C 163.684 32, 164 30.346, 164 24.500 C 164 18.654, 163.684 17, 162.566 17 C 161.746 17, 160.998 18.176, 160.816 19.750 C 160.589 21.728, 159.938 22.500, 158.500 22.500 C 157.062 22.500, 156.411 21.728, 156.184 19.750 C 156.002 18.176, 155.254 17, 154.434 17 C 153.316 17, 153 18.654, 153 24.500 M 125.667 18.667 C 125.300 19.033, 125 22.408, 125 26.167 L 125 33 129.500 33 C 133.333 33, 134 32.704, 134 31 C 134 29.436, 133.333 29, 130.941 29 C 129.156 29, 128.139 28.583, 128.500 28 C 128.840 27.450, 129.991 27, 131.059 27 C 132.302 27, 133 26.314, 133 25.094 C 133 23.718, 132.475 23.325, 131.113 23.681 C 130.075 23.952, 128.957 23.740, 128.629 23.209 C 128.301 22.678, 129.375 21.975, 131.016 21.647 C 135.572 20.736, 134.935 18, 130.167 18 C 128.058 18, 126.033 18.300, 125.667 18.667 M 167 24.893 C 167 32.373, 167.470 33, 173.082 33 C 175.333 33, 176 32.543, 176 31 C 176 29.533, 175.333 29, 173.500 29 C 172.125 29, 171 28.550, 171 28 C 171 27.450, 171.900 27, 173 27 C 174.100 27, 175 26.355, 175 25.567 C 175 24.779, 174.100 23.849, 173 23.500 C 170.091 22.577, 170.544 20.847, 173.500 21.589 C 175.575 22.110, 176 21.858, 176 20.108 C 176 18.276, 175.410 18, 171.500 18 L 167 18 167 24.893 M 118.589 21.500 C 117.834 24.509, 116.371 24.746, 115.500 22 C 114.883 20.055, 112.972 19.362, 111.710 20.624 C 111.366 20.967, 111.966 22.974, 113.043 25.084 C 114.119 27.194, 115 30.336, 115 32.067 C 115 34.526, 115.346 35.081, 116.582 34.607 C 117.452 34.273, 118.352 34, 118.582 34 C 118.812 34, 119.010 32.763, 119.022 31.250 C 119.034 29.738, 119.934 26.538, 121.022 24.141 C 123.432 18.829, 123.429 19, 121.108 19 C 119.925 19, 118.982 19.936, 118.589 21.500 M 182 20.463 C 182 21.411, 182.900 22.423, 184 22.710 C 185.681 23.150, 186 24.074, 186 28.510 C 186 32.277, 186.429 33.951, 187.500 34.362 C 188.721 34.830, 189 33.919, 189 29.469 C 189 24.667, 189.244 24, 191 24 C 192.333 24, 193 23.333, 193 22 C 193 20.766, 192.330 19.996, 191.250 19.989 C 190.287 19.983, 187.813 19.699, 185.750 19.358 C 182.627 18.842, 182 19.027, 182 20.463 M 195 28.375 C 195 35.333, 195.175 36, 197 36 C 198.398 36, 199.009 35.323, 199.030 33.750 C 199.060 31.567, 199.094 31.560, 200.155 33.500 C 201.373 35.728, 203.934 38, 205.226 38 C 205.691 38, 205.608 37.136, 205.043 36.081 C 204.478 35.025, 204.283 32.212, 204.610 29.828 C 205.299 24.801, 203.511 22.452, 198.184 21.387 L 195 20.750 195 28.375 M 100.969 24.750 C 99.629 27.475, 99.614 27.479, 99.229 25.174 C 98.965 23.590, 98.361 23.031, 97.339 23.424 C 96.512 23.741, 95.648 24, 95.418 24 C 95.188 24, 95 27.150, 95 31 C 95 37.333, 95.190 38, 97 38 C 98.507 38, 99.008 37.322, 99.033 35.250 L 99.067 32.500 100.944 34.750 C 102.899 37.094, 106 37.802, 106 35.904 C 106 35.302, 105.066 33.497, 103.925 31.894 L 101.849 28.980 104.006 25.490 C 106.083 22.130, 106.092 22, 104.242 22 C 103.141 22, 101.744 23.173, 100.969 24.750 M 207.006 27.250 C 207.014 32.310, 208.898 37.875, 210.978 38.988 C 216.295 41.834, 219 39.163, 219 31.066 C 219 26.667, 218.737 26, 217 26 C 215.263 26, 215 26.667, 215 31.073 C 215 35.365, 214.730 36.095, 213.250 35.814 C 211.870 35.551, 211.437 34.268, 211.200 29.740 C 210.943 24.818, 210.622 24, 208.950 24 C 207.416 24, 207.001 24.692, 207.006 27.250 M 87 25.892 C 84.647 26.544, 84.483 27.035, 84.209 34.241 L 83.918 41.897 88.203 40.656 C 90.917 39.870, 92.617 38.752, 92.837 37.608 C 93.133 36.070, 92.724 35.902, 90.093 36.480 C 86.343 37.303, 85.782 35.344, 89.500 34.411 C 92.844 33.571, 92.685 31.230, 89.250 30.742 L 86.500 30.350 89.750 29.077 C 91.537 28.377, 93 27.173, 93 26.402 C 93 24.917, 91.103 24.755, 87 25.892 M 199 26.319 C 199 28.185, 200.631 29.406, 201.420 28.130 C 201.727 27.633, 201.308 26.671, 200.489 25.991 C 199.278 24.986, 199 25.047, 199 26.319 M 221 29 C 221 30.111, 221.667 31, 222.500 31 C 223.664 31, 224 32.321, 224 36.893 C 224 42.382, 224.815 44, 227.582 44 C 227.812 44, 228 41.477, 228 38.393 C 228 33.820, 228.277 32.892, 229.500 33.362 C 230.505 33.747, 231 33.318, 231 32.063 C 231 30.724, 229.662 29.732, 226.322 28.594 C 220.576 26.636, 221 26.604, 221 29 M 76.250 29.247 L 73 30.289 73 37.645 C 73 42.034, 73.416 45, 74.032 45 C 76.531 45, 82 41.964, 82 40.576 C 82 39.409, 81.236 39.179, 78.750 39.597 C 75.666 40.116, 75.599 40.063, 77.441 38.572 C 78.509 37.707, 79.746 37, 80.191 37 C 80.636 37, 81 36.276, 81 35.392 C 81 34.175, 80.391 33.936, 78.500 34.411 C 74.965 35.298, 75.382 33.411, 79 32.150 C 80.650 31.575, 82 30.406, 82 29.552 C 82 27.803, 80.927 27.746, 76.250 29.247 M 233 38.393 C 233 43.813, 233.374 45.930, 234.402 46.324 C 236.175 47.004, 237 46.190, 237 43.760 C 237 40.290, 240.447 42.161, 241 45.932 C 241.275 47.807, 242.063 49.527, 242.750 49.754 C 244.736 50.410, 244.487 35.401, 242.500 34.638 C 241.406 34.219, 241 34.760, 241 36.638 C 241 38.576, 240.608 39.064, 239.418 38.607 C 238.548 38.273, 237.648 38, 237.418 38 C 237.188 38, 237 36.965, 237 35.700 C 237 33.425, 235.349 31, 233.800 31 C 233.360 31, 233 34.327, 233 38.393 M 63.073 35.635 C 60.061 39.463, 60.381 41.926, 63.984 42.647 C 65.625 42.975, 66.699 43.678, 66.371 44.209 C 66.043 44.740, 64.954 44.960, 63.952 44.698 C 62.277 44.260, 61 45.724, 61 48.082 C 61 50.806, 68.354 47.713, 69.890 44.343 C 71.548 40.704, 71.303 40.035, 67.750 38.491 C 65.174 37.371, 64.945 37.070, 66.643 37.039 C 67.822 37.018, 69.059 36.288, 69.393 35.418 C 70.287 33.090, 70.219 33, 67.573 33 C 66.141 33, 64.295 34.081, 63.073 35.635 M 139 37.618 C 127.265 38.428, 106.986 41.251, 96 43.604 C 83.201 46.345, 65.374 52.197, 63.200 54.372 C 61.166 56.406, 60.431 88.898, 61.919 111 C 65.410 162.842, 72.016 181.380, 95.848 206.210 C 107.039 217.869, 116.514 225.703, 131 235.275 C 142.812 243.079, 150.080 247.002, 152.717 246.996 C 155.402 246.991, 176.666 234.141, 187.736 225.835 C 199.275 217.177, 213.493 203.280, 220.819 193.500 C 232.107 178.429, 238.079 161.190, 241.609 133.485 C 242.974 122.778, 243.404 112.039, 243.446 87.665 L 243.500 55.830 241.169 53.939 C 238.155 51.494, 220.279 45.758, 207.500 43.136 C 187.662 39.065, 155.528 36.476, 139 37.618 M 151.250 60.765 C 149.907 63.158, 149 66.470, 149 68.986 C 149 73.442, 148.888 73.296, 159.873 83.234 C 163.436 86.457, 164.011 87.551, 164.079 91.234 L 164.158 95.500 166.566 90.500 C 167.891 87.750, 168.980 84.690, 168.987 83.700 C 169.010 80.525, 166.175 76.301, 161.919 73.172 C 156.476 69.169, 154.957 66.851, 154.160 61.332 L 153.500 56.758 151.250 60.765 M 151.171 63.524 C 150.527 64.938, 150 67.610, 150 69.462 C 150 72.365, 150.921 73.639, 156.651 78.665 C 160.309 81.874, 163.874 85.850, 164.573 87.500 L 165.845 90.500 166.922 87.685 C 168.929 82.444, 168.249 80.804, 161.453 74.492 C 157.357 70.687, 154.425 67.014, 153.624 64.682 L 152.342 60.954 151.171 63.524 M 144.250 68.118 C 143.012 70.108, 142 73.078, 142 74.718 C 142 77.917, 146.675 85.221, 149.791 86.888 C 152.850 88.525, 156.862 95.208, 157.607 99.906 L 158.306 104.313 160.757 99.490 C 164.584 91.960, 163.615 88.921, 154.844 80.933 C 148.138 74.827, 147.593 74.021, 147.066 69.433 L 146.500 64.500 144.250 68.118 M 144.184 70.216 C 143.533 70.867, 143 72.889, 143 74.710 C 143 77.424, 144.268 79.387, 150.047 85.620 C 154.146 90.040, 157.338 94.438, 157.676 96.131 C 158.527 100.386, 159.681 100.498, 161.014 96.456 C 163.022 90.374, 162.187 88.920, 151.208 79.365 C 149.398 77.789, 147.343 74.820, 146.642 72.766 C 145.661 69.889, 145.097 69.303, 144.184 70.216 M 138.082 79.299 C 134.947 86.078, 135.824 88.783, 143.234 95.202 C 147.336 98.756, 150.050 102.115, 151.547 105.490 L 153.769 110.500 154.966 106.091 C 156.969 98.711, 155.677 95.293, 148.281 88.413 C 143.104 83.597, 141.588 81.509, 141.020 78.413 L 140.301 74.500 138.082 79.299 M 138.579 80.250 C 138.261 81.213, 137.773 82.716, 137.496 83.591 C 136.666 86.214, 139.781 91.306, 144.170 94.500 C 146.437 96.150, 149.537 99.439, 151.060 101.810 C 153.583 105.740, 153.887 105.930, 154.509 103.973 C 155.969 99.373, 154.119 95.266, 148.218 90.007 C 145.078 87.208, 141.755 83.474, 140.834 81.709 C 139.466 79.089, 139.052 78.821, 138.579 80.250 M 141.182 121.500 L 140.043 124 152.521 124 C 162.094 124, 165 123.697, 165 122.700 C 165 119.732, 162.521 119, 152.461 119 C 142.615 119, 142.288 119.073, 141.182 121.500 M 135 127.965 C 135 128.495, 135.850 129.385, 136.890 129.941 C 137.929 130.497, 139.659 132.650, 140.735 134.726 L 142.691 138.500 152.272 138.785 C 161.620 139.064, 161.898 139.007, 163.677 136.453 C 164.680 135.013, 166.784 132.297, 168.354 130.417 L 171.207 127 153.104 127 C 142.141 127, 135 127.381, 135 127.965 M 145 143.800 C 145 145.866, 147.894 147, 153.165 147 C 157.906 147, 159.120 146.645, 160 145 C 161.029 143.077, 160.760 143, 153.035 143 C 148.616 143, 145 143.360, 145 143.800 M 148.153 154.001 C 148.401 157.578, 148.136 159.001, 147.220 159.001 C 146.516 159, 143.267 160.125, 140 161.500 C 136.733 162.875, 132.261 164, 130.062 164 C 126.962 164, 125.776 164.506, 124.782 166.250 C 124.077 167.488, 122.835 168.500, 122.023 168.500 C 120.590 168.500, 119.343 170.550, 108.185 191.250 L 102.930 201 127.528 201 L 152.127 201 151.813 197.782 C 151.584 195.425, 150.591 193.953, 148.102 192.282 C 143.587 189.250, 138.434 189.361, 130.720 192.658 C 126.262 194.563, 122.163 195.449, 116.250 195.784 C 111.713 196.041, 108 196.007, 108 195.709 C 108 194.476, 122.293 168.960, 122.736 169.402 C 123.001 169.668, 120.244 175.248, 116.609 181.804 C 112.974 188.359, 110 194.075, 110 194.506 C 110 196.116, 123.208 193.978, 129.731 191.312 C 138.684 187.653, 144.576 187.676, 149.445 191.390 L 153.047 194.138 156.053 191.609 C 160.552 187.823, 165.049 187.350, 171.804 189.950 C 180.910 193.456, 187.880 195.130, 192.011 194.803 L 195.851 194.500 187.374 178.978 L 178.897 163.457 175.088 163.820 C 172.661 164.052, 169.870 163.469, 167.390 162.214 C 165.250 161.130, 162.027 159.926, 160.227 159.537 L 156.954 158.831 157.606 153.915 L 158.258 149 153.032 149 L 147.807 149 148.153 154.001 M 140 162.976 C 137.525 164.028, 133.638 164.913, 131.361 164.944 C 127.232 165, 127.214 165.017, 123.139 172.750 C 120.892 177.012, 117.436 183.377, 115.458 186.892 L 111.861 193.285 118.181 192.761 C 121.808 192.460, 127.002 191.121, 130.374 189.618 C 137.020 186.657, 142.408 186.308, 147.654 188.500 C 149.629 189.325, 151.427 190, 151.650 190 C 151.873 190, 151.930 183.588, 151.777 175.750 L 151.500 161.500 148 161.282 C 146.075 161.162, 142.475 161.924, 140 162.976 M 154 175.500 C 154 183.475, 154.338 189.984, 154.750 189.965 C 155.162 189.945, 156.625 189.286, 158 188.500 C 161.976 186.227, 168.187 186.735, 176.341 190 C 180.854 191.807, 185.655 193, 188.417 193 C 190.937 193, 193 192.840, 193 192.645 C 193 192.450, 189.701 186.262, 185.669 178.895 L 178.337 165.500 173.419 164.900 C 170.713 164.570, 166.531 163.558, 164.124 162.650 C 161.718 161.743, 158.455 161, 156.874 161 L 154 161 154 175.500 M 116 170 C 114.825 171.650, 113.246 173, 112.491 173 C 110.559 173, 109.499 175.072, 110.966 175.979 C 112.767 177.092, 109.498 183, 107.081 183 C 106.054 183, 104.955 183.675, 104.638 184.500 C 104.279 185.437, 104.646 186, 105.618 186 C 106.803 186, 106.199 187.807, 103.087 193.577 C 100.839 197.744, 99 201.794, 99 202.577 C 99 203.790, 106.961 204, 153 204 C 191.230 204, 207 203.682, 207 202.912 C 207 202.314, 205.361 198.893, 203.357 195.310 C 200.784 190.709, 200.059 188.581, 200.891 188.068 C 202.589 187.018, 201.122 184, 198.913 184 C 197.735 184, 196.284 182.516, 195 180 C 193.878 177.800, 193.418 176, 193.980 176 C 195.848 176, 195.031 173.821, 192.960 173.279 C 191.838 172.986, 190.251 171.453, 189.434 169.873 C 188.617 168.293, 187.215 167, 186.319 167 C 184.854 167, 184.844 167.176, 186.212 168.750 C 188.244 171.086, 204 200.417, 204 201.864 C 204 202.697, 190.282 203, 152.500 203 C 124.175 203, 101.004 202.662, 101.009 202.250 C 101.014 201.838, 105.244 193.738, 110.409 184.250 C 115.574 174.762, 119.426 167, 118.968 167 C 118.511 167, 117.175 168.350, 116 170 M 187.940 177.500 C 190.874 183, 194.417 189.473, 195.812 191.885 L 198.348 196.269 189.924 195.793 C 183.831 195.448, 179.779 194.581, 175.280 192.658 C 167.065 189.147, 161.193 189.125, 157.077 192.589 C 154.939 194.388, 154 196.066, 154 198.089 L 154 201 178 201 C 191.200 201, 202 200.710, 202 200.357 C 202 198.869, 185.815 170.095, 184.281 168.855 C 183.359 168.110, 185.005 172, 187.940 177.500 M 149.830 208.500 C 150.703 210.425, 151.965 212, 152.635 212 C 153.604 212, 157 206.823, 157 205.346 C 157 205.156, 155.030 205, 152.622 205 L 148.244 205 149.830 208.500 M 22.010 231.035 C 23.194 235.164, 26.697 240.670, 28.605 241.402 C 29.891 241.895, 29.532 242.870, 26.584 246.885 C 24.613 249.571, 23 252.181, 23 252.686 C 23 255.646, 43.337 259.302, 53.500 258.169 L 59.500 257.500 59.787 248.871 C 60.147 238.067, 61.588 236.144, 68.089 237.795 C 76.145 239.839, 77.739 236.119, 70.250 232.752 C 66.089 230.881, 63.392 230.586, 48.500 230.376 C 39.150 230.244, 29.928 229.656, 28.007 229.068 C 22.002 227.232, 21.012 227.557, 22.010 231.035 M 278.500 229.144 C 276.850 229.678, 267.850 230.228, 258.500 230.366 C 243.623 230.585, 240.907 230.883, 236.750 232.752 C 229.710 235.917, 230.853 240.050, 238.186 237.947 C 245.600 235.820, 247 237.499, 247 248.512 C 247 253.462, 247.444 257.157, 248.087 257.554 C 249.855 258.647, 268.093 258.304, 273.341 257.080 C 276.004 256.459, 279.728 255.305, 281.618 254.515 L 285.054 253.080 281.527 248.170 C 277.643 242.764, 277.289 241.487, 279.448 240.658 C 281.037 240.049, 283.794 235.206, 285.055 230.808 C 285.765 228.331, 285.603 228.010, 283.680 228.086 C 282.481 228.133, 280.150 228.609, 278.500 229.144 M 63.750 238.777 C 62.788 238.980, 62 239.981, 62 241.001 C 62 242.340, 63.575 243.445, 67.654 244.972 C 75.276 247.824, 76.462 247.463, 76.661 242.237 C 76.827 237.889, 76.253 237.147, 74.262 239.138 C 73.470 239.930, 71.970 239.992, 69.312 239.341 C 67.216 238.827, 64.713 238.573, 63.750 238.777 M 230.193 242.250 C 230.492 246.392, 230.586 246.496, 233.894 246.337 C 238.768 246.103, 245 243.064, 245 240.921 C 245 238.677, 242.555 238.148, 237.688 239.341 C 235.030 239.992, 233.530 239.930, 232.738 239.138 C 230.641 237.041, 229.883 237.969, 230.193 242.250 M 32.732 243.250 C 32.460 245.037, 32.296 246.548, 32.369 246.606 C 33.335 247.388, 39 247.703, 39 246.975 C 39 246.439, 37.987 245.971, 36.750 245.937 C 34.562 245.875, 34.569 245.844, 37 244.832 C 39.382 243.839, 39.405 243.751, 37.500 242.965 C 35.618 242.189, 35.637 242.136, 37.809 242.070 C 41.118 241.970, 39.448 240, 36.054 240 C 33.633 240, 33.156 240.466, 32.732 243.250 M 49.166 240.876 C 48.092 241.557, 48.141 241.840, 49.416 242.329 C 50.287 242.664, 51 244.076, 51 245.469 C 51 246.861, 51.450 248, 52 248 C 52.550 248, 53 246.650, 53 245 C 53 243.350, 53.450 242, 54 242 C 54.550 242, 55 241.550, 55 241 C 55 239.787, 51.018 239.702, 49.166 240.876 M 271.250 240.662 C 270.563 240.940, 270 242.082, 270 243.200 C 270 244.741, 270.484 245.107, 272 244.710 C 273.100 244.423, 274 244.595, 274 245.094 C 274 245.592, 272.988 246.030, 271.750 246.068 L 269.500 246.135 271.793 247.239 C 273.610 248.115, 274.412 248.017, 275.661 246.768 C 277.577 244.851, 276.659 243.041, 273.691 242.884 C 271.999 242.794, 271.899 242.664, 273.250 242.311 C 274.212 242.059, 275 241.436, 275 240.927 C 275 239.944, 273.323 239.826, 271.250 240.662 M 40.786 244.006 C 40.268 247.534, 40.590 248, 43.544 248 C 46.099 248, 48.653 245.522, 47.092 244.557 C 46.540 244.215, 46.341 243.275, 46.651 242.468 C 47.069 241.379, 46.442 241, 44.220 241 C 41.658 241, 41.164 241.432, 40.786 244.006 M 264.250 241.662 C 262.150 242.510, 262.721 247.777, 264.991 248.497 C 267.825 249.397, 269.166 248.224, 268.813 245.154 C 268.404 241.600, 267.023 240.543, 264.250 241.662 M 250.208 242.676 C 249.153 243.100, 249.153 243.481, 250.208 244.760 C 251.232 246.001, 251.241 246.412, 250.250 246.746 C 247.809 247.567, 249.049 249, 252.200 249 C 254.689 249, 255.133 248.733, 254.200 247.800 C 253.540 247.140, 253 245.565, 253 244.300 C 253 241.981, 252.568 241.729, 250.208 242.676 M 255.482 243.030 C 255.093 243.659, 255.240 244.640, 255.809 245.209 C 256.378 245.778, 256.592 246.900, 256.284 247.702 C 255.859 248.811, 256.415 249.081, 258.612 248.830 C 261.081 248.548, 261.500 248.065, 261.500 245.500 C 261.500 242.997, 261.060 242.449, 258.844 242.193 C 257.384 242.024, 255.871 242.400, 255.482 243.030 M 61.221 257.238 C 61.495 270.254, 61.542 270.496, 64 271.664 C 70.576 274.789, 95.780 278.254, 129.622 280.684 C 152.512 282.328, 154.962 282.328, 177.622 280.680 C 211.427 278.222, 236.469 274.768, 243 271.664 C 245.458 270.496, 245.505 270.254, 245.779 257.238 C 245.932 249.957, 245.932 244, 245.779 244.001 C 245.626 244.001, 243.085 244.919, 240.133 246.041 C 227.479 250.850, 190.643 254.411, 153.500 254.416 C 116.921 254.420, 79.405 250.806, 66.971 246.080 C 63.962 244.937, 61.374 244.001, 61.221 244.001 C 61.068 244, 61.068 249.957, 61.221 257.238 M 236.500 251.160 C 234.300 251.684, 231.488 252.322, 230.250 252.576 C 228.140 253.009, 228 253.542, 228 261.133 L 228 269.227 232.750 268.542 C 240.732 267.390, 242 266.893, 242 264.911 C 242 263.267, 241.451 263.114, 237.500 263.655 C 231.948 264.416, 231.357 262.587, 236.743 261.313 C 239.123 260.751, 240.614 259.766, 240.837 258.610 C 241.145 257.007, 240.705 256.874, 237.093 257.484 C 231.485 258.432, 231.809 256.537, 237.500 255.104 C 240.942 254.238, 242 253.504, 242 251.986 C 242 249.795, 242.140 249.816, 236.500 251.160 M 69.101 254.187 C 68.608 255.459, 67.282 258.820, 66.154 261.655 L 64.104 266.809 66.777 267.480 C 68.375 267.881, 69.594 267.719, 69.808 267.075 C 70.324 265.528, 73.609 265.752, 75.308 267.451 C 76.106 268.248, 77.988 269.210, 79.490 269.587 C 82.570 270.360, 82.654 271.308, 78.570 259.166 C 76.488 252.977, 76.101 252.478, 73.163 252.187 C 70.626 251.935, 69.821 252.332, 69.101 254.187 M 219 254.109 C 209.796 255.573, 209 255.890, 209 258.091 C 209 259.741, 209.539 260.080, 211.750 259.822 C 214.440 259.507, 214.507 259.626, 214.800 265.250 C 215.079 270.604, 215.269 271, 217.550 271 C 219.899 271, 220 270.731, 220 264.500 C 220 258.233, 220.090 258, 222.500 258 C 224.500 258, 225 257.500, 225 255.500 C 225 254.125, 224.887 253.053, 224.750 253.117 C 224.613 253.181, 222.025 253.628, 219 254.109 M 84 261.875 C 84 266.279, 84.353 270.100, 84.785 270.367 C 85.216 270.634, 88.366 271.168, 91.785 271.555 C 97.569 272.210, 98 272.120, 98 270.257 C 98 268.699, 97.124 268.115, 94.048 267.624 L 90.095 266.992 89.798 260.746 C 89.512 254.761, 89.385 254.487, 86.750 254.184 L 84 253.867 84 261.875 M 100.725 256.609 C 99.665 257.668, 99.838 271.782, 100.918 272.449 C 101.423 272.762, 104.384 273.126, 107.498 273.258 C 114.172 273.543, 116 271.932, 116 265.763 C 116 261.036, 112.463 257.007, 108.295 256.986 C 106.758 256.979, 104.589 256.728, 103.475 256.428 C 102.361 256.129, 101.123 256.210, 100.725 256.609 M 200.500 256.962 C 197.807 257.455, 197.225 258.278, 194.813 265.006 C 193.335 269.128, 192.097 272.837, 192.063 273.250 C 191.943 274.681, 197.066 273.992, 197.638 272.500 C 198.315 270.737, 203.653 270.459, 204.219 272.158 C 204.461 272.883, 205.597 273.067, 207.255 272.651 L 209.905 271.986 207.377 265.269 C 204.039 256.400, 203.978 256.326, 200.500 256.962 M 72 260 C 72 261.100, 72.633 262, 73.406 262 C 74.320 262, 74.630 261.300, 74.290 260 C 74.002 258.900, 73.369 258, 72.883 258 C 72.398 258, 72 258.900, 72 260 M 119.210 266.250 L 119.500 274.500 126.832 274.795 C 133.431 275.061, 134.130 274.911, 133.824 273.295 C 133.577 271.994, 132.385 271.413, 129.492 271.183 C 123.880 270.738, 122.534 269, 127.800 269 C 131.290 269, 132 268.672, 132 267.060 C 132 265.541, 131.188 265.054, 128.250 264.810 C 123.328 264.403, 124.337 262.500, 129.475 262.500 C 132.326 262.500, 133.540 262.046, 133.771 260.892 C 134.016 259.665, 132.984 259.133, 129.406 258.642 C 126.829 258.289, 123.415 258, 121.820 258 L 118.919 258 119.210 266.250 M 177 259.294 C 173.102 261.265, 171.522 265.460, 172.919 270.123 C 174.252 274.572, 175.808 275.215, 184 274.703 L 189.500 274.359 189.805 269.679 C 190.086 265.369, 189.928 265.001, 187.805 265.014 C 183.936 265.037, 181 266.160, 181 267.617 C 181 268.377, 181.990 269, 183.200 269 C 184.781 269, 185.095 269.305, 184.315 270.085 C 183.719 270.681, 182.166 271.019, 180.865 270.835 C 178.909 270.558, 178.500 269.914, 178.500 267.109 C 178.500 262.895, 181.012 260.902, 183.983 262.757 C 186.372 264.249, 190 264.396, 190 263 C 190 262.450, 189.100 261.100, 188 260 C 185.708 257.708, 180.763 257.391, 177 259.294 M 137 267.500 C 137 275.900, 137.029 276, 139.500 276 C 141.611 276, 142 275.533, 142 273 C 142 271.350, 142.438 270, 142.974 270 C 143.510 270, 144.647 271.350, 145.500 273 C 146.693 275.308, 147.734 276, 150.010 276 L 152.968 276 151.351 272.609 C 149.884 269.533, 149.878 269.012, 151.291 266.994 C 154.517 262.390, 150.920 259, 142.809 259 L 137 259 137 267.500 M 157.223 260.557 C 153.784 262.965, 154.289 266.817, 158.250 268.403 C 166.112 271.552, 165.765 271.307, 163.033 271.774 C 161.676 272.006, 160.401 271.702, 160.199 271.098 C 159.650 269.450, 155 269.745, 155 271.429 C 155 274.122, 158.047 276, 162.416 276 C 167.358 276, 170 273.794, 170 269.667 C 170 267.342, 169.412 266.835, 165.500 265.789 C 163.025 265.127, 161 264.201, 161 263.731 C 161 263.262, 163.025 263.181, 165.500 263.552 C 170.353 264.280, 171.183 263.380, 168.171 260.655 C 165.866 258.569, 160.134 258.517, 157.223 260.557 M 106 265.070 C 106 268.718, 106.233 269.106, 108.250 268.820 C 112.218 268.256, 111.408 261, 107.378 261 C 106.433 261, 106 262.280, 106 265.070 M 199.773 264.408 C 199.436 266.171, 199.713 267, 200.639 267 C 202.170 267, 202.398 265.176, 201.119 263.158 C 200.498 262.178, 200.135 262.515, 199.773 264.408 M 142 264.430 C 142 265.451, 142.903 266, 144.583 266 C 147.716 266, 147.373 263.652, 144.172 263.180 C 142.729 262.968, 142 263.388, 142 264.430" stroke="none" fill="#136a39" fill-rule="evenodd"/><path d="M 127 11.695 C 103.868 14.175, 64.699 25.301, 58.985 31.015 C 56.542 33.458, 55.569 57.254, 56.287 96.992 C 56.867 129.086, 58.398 143.975, 62.954 161.819 C 67.151 178.259, 75.375 192.031, 90.376 207.745 C 105 223.064, 119.946 234.349, 141.715 246.509 L 151.931 252.215 161.715 246.997 C 181.721 236.327, 198.904 223.872, 212.794 209.970 C 240.428 182.314, 247.758 159.834, 249.632 97 C 249.971 85.605, 249.735 66.732, 249.099 54.505 C 248.133 35.945, 247.685 32.253, 246.227 30.864 C 244.083 28.819, 228.840 22.814, 217.327 19.478 C 206.092 16.222, 191.763 13.330, 180.500 12.044 C 172.136 11.089, 134.918 10.846, 127 11.695 M 140 18.883 C 140 19.926, 140.893 21, 142 21.290 C 143.670 21.726, 144 22.654, 144 26.906 C 144 30.767, 144.363 32, 145.500 32 C 146.648 32, 147 30.735, 147 26.617 C 147 22.074, 147.312 21.152, 149 20.710 C 150.100 20.423, 151 19.470, 151 18.594 C 151 17.329, 149.866 17, 145.500 17 C 140.780 17, 140 17.267, 140 18.883 M 153 24.500 C 153 30.346, 153.316 32, 154.434 32 C 155.254 32, 156.002 30.824, 156.184 29.250 C 156.411 27.272, 157.062 26.500, 158.500 26.500 C 159.938 26.500, 160.589 27.272, 160.816 29.250 C 160.998 30.824, 161.746 32, 162.566 32 C 163.684 32, 164 30.346, 164 24.500 C 164 18.654, 163.684 17, 162.566 17 C 161.746 17, 160.998 18.176, 160.816 19.750 C 160.589 21.728, 159.938 22.500, 158.500 22.500 C 157.062 22.500, 156.411 21.728, 156.184 19.750 C 156.002 18.176, 155.254 17, 154.434 17 C 153.316 17, 153 18.654, 153 24.500 M 125.667 18.667 C 125.300 19.033, 125 22.408, 125 26.167 L 125 33 129.500 33 C 133.333 33, 134 32.704, 134 31 C 134 29.436, 133.333 29, 130.941 29 C 129.156 29, 128.139 28.583, 128.500 28 C 128.840 27.450, 129.991 27, 131.059 27 C 132.302 27, 133 26.314, 133 25.094 C 133 23.718, 132.475 23.325, 131.113 23.681 C 130.075 23.952, 128.957 23.740, 128.629 23.209 C 128.301 22.678, 129.375 21.975, 131.016 21.647 C 135.572 20.736, 134.935 18, 130.167 18 C 128.058 18, 126.033 18.300, 125.667 18.667 M 167 24.893 C 167 32.373, 167.470 33, 173.082 33 C 175.333 33, 176 32.543, 176 31 C 176 29.533, 175.333 29, 173.500 29 C 172.125 29, 171 28.550, 171 28 C 171 27.450, 171.900 27, 173 27 C 174.100 27, 175 26.355, 175 25.567 C 175 24.779, 174.100 23.849, 173 23.500 C 170.091 22.577, 170.544 20.847, 173.500 21.589 C 175.575 22.110, 176 21.858, 176 20.108 C 176 18.276, 175.410 18, 171.500 18 L 167 18 167 24.893 M 118.589 21.500 C 117.834 24.509, 116.371 24.746, 115.500 22 C 114.883 20.055, 112.972 19.362, 111.710 20.624 C 111.366 20.967, 111.966 22.974, 113.043 25.084 C 114.119 27.194, 115 30.336, 115 32.067 C 115 34.526, 115.346 35.081, 116.582 34.607 C 117.452 34.273, 118.352 34, 118.582 34 C 118.812 34, 119.010 32.763, 119.022 31.250 C 119.034 29.738, 119.934 26.538, 121.022 24.141 C 123.432 18.829, 123.429 19, 121.108 19 C 119.925 19, 118.982 19.936, 118.589 21.500 M 182 20.463 C 182 21.411, 182.900 22.423, 184 22.710 C 185.681 23.150, 186 24.074, 186 28.510 C 186 32.277, 186.429 33.951, 187.500 34.362 C 188.721 34.830, 189 33.919, 189 29.469 C 189 24.667, 189.244 24, 191 24 C 192.333 24, 193 23.333, 193 22 C 193 20.766, 192.330 19.996, 191.250 19.989 C 190.287 19.983, 187.813 19.699, 185.750 19.358 C 182.627 18.842, 182 19.027, 182 20.463 M 195 28.375 C 195 35.333, 195.175 36, 197 36 C 198.398 36, 199.009 35.323, 199.030 33.750 C 199.060 31.567, 199.094 31.560, 200.155 33.500 C 201.373 35.728, 203.934 38, 205.226 38 C 205.691 38, 205.608 37.136, 205.043 36.081 C 204.478 35.025, 204.283 32.212, 204.610 29.828 C 205.299 24.801, 203.511 22.452, 198.184 21.387 L 195 20.750 195 28.375 M 100.969 24.750 C 99.629 27.475, 99.614 27.479, 99.229 25.174 C 98.965 23.590, 98.361 23.031, 97.339 23.424 C 96.512 23.741, 95.648 24, 95.418 24 C 95.188 24, 95 27.150, 95 31 C 95 37.333, 95.190 38, 97 38 C 98.507 38, 99.008 37.322, 99.033 35.250 L 99.067 32.500 100.944 34.750 C 102.899 37.094, 106 37.802, 106 35.904 C 106 35.302, 105.066 33.497, 103.925 31.894 L 101.849 28.980 104.006 25.490 C 106.083 22.130, 106.092 22, 104.242 22 C 103.141 22, 101.744 23.173, 100.969 24.750 M 207.006 27.250 C 207.014 32.310, 208.898 37.875, 210.978 38.988 C 216.295 41.834, 219 39.163, 219 31.066 C 219 26.667, 218.737 26, 217 26 C 215.263 26, 215 26.667, 215 31.073 C 215 35.365, 214.730 36.095, 213.250 35.814 C 211.870 35.551, 211.437 34.268, 211.200 29.740 C 210.943 24.818, 210.622 24, 208.950 24 C 207.416 24, 207.001 24.692, 207.006 27.250 M 87 25.892 C 84.647 26.544, 84.483 27.035, 84.209 34.241 L 83.918 41.897 88.203 40.656 C 90.917 39.870, 92.617 38.752, 92.837 37.608 C 93.133 36.070, 92.724 35.902, 90.093 36.480 C 86.343 37.303, 85.782 35.344, 89.500 34.411 C 92.844 33.571, 92.685 31.230, 89.250 30.742 L 86.500 30.350 89.750 29.077 C 91.537 28.377, 93 27.173, 93 26.402 C 93 24.917, 91.103 24.755, 87 25.892 M 199 26.319 C 199 28.185, 200.631 29.406, 201.420 28.130 C 201.727 27.633, 201.308 26.671, 200.489 25.991 C 199.278 24.986, 199 25.047, 199 26.319 M 221 29 C 221 30.111, 221.667 31, 222.500 31 C 223.664 31, 224 32.321, 224 36.893 C 224 42.382, 224.815 44, 227.582 44 C 227.812 44, 228 41.477, 228 38.393 C 228 33.820, 228.277 32.892, 229.500 33.362 C 230.505 33.747, 231 33.318, 231 32.063 C 231 30.724, 229.662 29.732, 226.322 28.594 C 220.576 26.636, 221 26.604, 221 29 M 76.250 29.247 L 73 30.289 73 37.645 C 73 42.034, 73.416 45, 74.032 45 C 76.531 45, 82 41.964, 82 40.576 C 82 39.409, 81.236 39.179, 78.750 39.597 C 75.666 40.116, 75.599 40.063, 77.441 38.572 C 78.509 37.707, 79.746 37, 80.191 37 C 80.636 37, 81 36.276, 81 35.392 C 81 34.175, 80.391 33.936, 78.500 34.411 C 74.965 35.298, 75.382 33.411, 79 32.150 C 80.650 31.575, 82 30.406, 82 29.552 C 82 27.803, 80.927 27.746, 76.250 29.247 M 233 38.393 C 233 43.813, 233.374 45.930, 234.402 46.324 C 236.175 47.004, 237 46.190, 237 43.760 C 237 40.290, 240.447 42.161, 241 45.932 C 241.275 47.807, 242.063 49.527, 242.750 49.754 C 244.736 50.410, 244.487 35.401, 242.500 34.638 C 241.406 34.219, 241 34.760, 241 36.638 C 241 38.576, 240.608 39.064, 239.418 38.607 C 238.548 38.273, 237.648 38, 237.418 38 C 237.188 38, 237 36.965, 237 35.700 C 237 33.425, 235.349 31, 233.800 31 C 233.360 31, 233 34.327, 233 38.393 M 63.073 35.635 C 60.061 39.463, 60.381 41.926, 63.984 42.647 C 65.625 42.975, 66.699 43.678, 66.371 44.209 C 66.043 44.740, 64.954 44.960, 63.952 44.698 C 62.277 44.260, 61 45.724, 61 48.082 C 61 50.806, 68.354 47.713, 69.890 44.343 C 71.548 40.704, 71.303 40.035, 67.750 38.491 C 65.174 37.371, 64.945 37.070, 66.643 37.039 C 67.822 37.018, 69.059 36.288, 69.393 35.418 C 70.287 33.090, 70.219 33, 67.573 33 C 66.141 33, 64.295 34.081, 63.073 35.635 M 139 37.618 C 127.265 38.428, 106.986 41.251, 96 43.604 C 83.201 46.345, 65.374 52.197, 63.200 54.372 C 61.166 56.406, 60.431 88.898, 61.919 111 C 65.410 162.842, 72.016 181.380, 95.848 206.210 C 107.039 217.869, 116.514 225.703, 131 235.275 C 142.812 243.079, 150.080 247.002, 152.717 246.996 C 155.402 246.991, 176.666 234.141, 187.736 225.835 C 199.275 217.177, 213.493 203.280, 220.819 193.500 C 232.107 178.429, 238.079 161.190, 241.609 133.485 C 242.974 122.778, 243.404 112.039, 243.446 87.665 L 243.500 55.830 241.169 53.939 C 238.155 51.494, 220.279 45.758, 207.500 43.136 C 187.662 39.065, 155.528 36.476, 139 37.618 M 151.250 60.765 C 149.907 63.158, 149 66.470, 149 68.986 C 149 73.442, 148.888 73.296, 159.873 83.234 C 163.436 86.457, 164.011 87.551, 164.079 91.234 L 164.158 95.500 166.566 90.500 C 167.891 87.750, 168.980 84.690, 168.987 83.700 C 169.010 80.525, 166.175 76.301, 161.919 73.172 C 156.476 69.169, 154.957 66.851, 154.160 61.332 L 153.500 56.758 151.250 60.765 M 151.171 63.524 C 150.527 64.938, 150 67.610, 150 69.462 C 150 72.365, 150.921 73.639, 156.651 78.665 C 160.309 81.874, 163.874 85.850, 164.573 87.500 L 165.845 90.500 166.922 87.685 C 168.929 82.444, 168.249 80.804, 161.453 74.492 C 157.357 70.687, 154.425 67.014, 153.624 64.682 L 152.342 60.954 151.171 63.524 M 144.250 68.118 C 143.012 70.108, 142 73.078, 142 74.718 C 142 77.917, 146.675 85.221, 149.791 86.888 C 152.850 88.525, 156.862 95.208, 157.607 99.906 L 158.306 104.313 160.757 99.490 C 164.584 91.960, 163.615 88.921, 154.844 80.933 C 148.138 74.827, 147.593 74.021, 147.066 69.433 L 146.500 64.500 144.250 68.118 M 144.184 70.216 C 143.533 70.867, 143 72.889, 143 74.710 C 143 77.424, 144.268 79.387, 150.047 85.620 C 154.146 90.040, 157.338 94.438, 157.676 96.131 C 158.527 100.386, 159.681 100.498, 161.014 96.456 C 163.022 90.374, 162.187 88.920, 151.208 79.365 C 149.398 77.789, 147.343 74.820, 146.642 72.766 C 145.661 69.889, 145.097 69.303, 144.184 70.216 M 138.082 79.299 C 134.947 86.078, 135.824 88.783, 143.234 95.202 C 147.336 98.756, 150.050 102.115, 151.547 105.490 L 153.769 110.500 154.966 106.091 C 156.969 98.711, 155.677 95.293, 148.281 88.413 C 143.104 83.597, 141.588 81.509, 141.020 78.413 L 140.301 74.500 138.082 79.299 M 138.579 80.250 C 138.261 81.213, 137.773 82.716, 137.496 83.591 C 136.666 86.214, 139.781 91.306, 144.170 94.500 C 146.437 96.150, 149.537 99.439, 151.060 101.810 C 153.583 105.740, 153.887 105.930, 154.509 103.973 C 155.969 99.373, 154.119 95.266, 148.218 90.007 C 145.078 87.208, 141.755 83.474, 140.834 81.709 C 139.466 79.089, 139.052 78.821, 138.579 80.250 M 141.182 121.500 L 140.043 124 152.521 124 C 162.094 124, 165 123.697, 165 122.700 C 165 119.732, 162.521 119, 152.461 119 C 142.615 119, 142.288 119.073, 141.182 121.500 M 135 127.965 C 135 128.495, 135.850 129.385, 136.890 129.941 C 137.929 130.497, 139.659 132.650, 140.735 134.726 L 142.691 138.500 152.272 138.785 C 161.620 139.064, 161.898 139.007, 163.677 136.453 C 164.680 135.013, 166.784 132.297, 168.354 130.417 L 171.207 127 153.104 127 C 142.141 127, 135 127.381, 135 127.965 M 145 143.800 C 145 145.866, 147.894 147, 153.165 147 C 157.906 147, 159.120 146.645, 160 145 C 161.029 143.077, 160.760 143, 153.035 143 C 148.616 143, 145 143.360, 145 143.800 M 148.153 154.001 C 148.401 157.578, 148.136 159.001, 147.220 159.001 C 146.516 159, 143.267 160.125, 140 161.500 C 136.733 162.875, 132.261 164, 130.062 164 C 126.962 164, 125.776 164.506, 124.782 166.250 C 124.077 167.488, 122.835 168.500, 122.023 168.500 C 120.590 168.500, 119.343 170.550, 108.185 191.250 L 102.930 201 127.528 201 L 152.127 201 151.813 197.782 C 151.584 195.425, 150.591 193.953, 148.102 192.282 C 143.587 189.250, 138.434 189.361, 130.720 192.658 C 126.262 194.563, 122.163 195.449, 116.250 195.784 C 111.713 196.041, 108 196.007, 108 195.709 C 108 194.476, 122.293 168.960, 122.736 169.402 C 123.001 169.668, 120.244 175.248, 116.609 181.804 C 112.974 188.359, 110 194.075, 110 194.506 C 110 196.116, 123.208 193.978, 129.731 191.312 C 138.684 187.653, 144.576 187.676, 149.445 191.390 L 153.047 194.138 156.053 191.609 C 160.552 187.823, 165.049 187.350, 171.804 189.950 C 180.910 193.456, 187.880 195.130, 192.011 194.803 L 195.851 194.500 187.374 178.978 L 178.897 163.457 175.088 163.820 C 172.661 164.052, 169.870 163.469, 167.390 162.214 C 165.250 161.130, 162.027 159.926, 160.227 159.537 L 156.954 158.831 157.606 153.915 L 158.258 149 153.032 149 L 147.807 149 148.153 154.001 M 140 162.976 C 137.525 164.028, 133.638 164.913, 131.361 164.944 C 127.232 165, 127.214 165.017, 123.139 172.750 C 120.892 177.012, 117.436 183.377, 115.458 186.892 L 111.861 193.285 118.181 192.761 C 121.808 192.460, 127.002 191.121, 130.374 189.618 C 137.020 186.657, 142.408 186.308, 147.654 188.500 C 149.629 189.325, 151.427 190, 151.650 190 C 151.873 190, 151.930 183.588, 151.777 175.750 L 151.500 161.500 148 161.282 C 146.075 161.162, 142.475 161.924, 140 162.976 M 154 175.500 C 154 183.475, 154.338 189.984, 154.750 189.965 C 155.162 189.945, 156.625 189.286, 158 188.500 C 161.976 186.227, 168.187 186.735, 176.341 190 C 180.854 191.807, 185.655 193, 188.417 193 C 190.937 193, 193 192.840, 193 192.645 C 193 192.450, 189.701 186.262, 185.669 178.895 L 178.337 165.500 173.419 164.900 C 170.713 164.570, 166.531 163.558, 164.124 162.650 C 161.718 161.743, 158.455 161, 156.874 161 L 154 161 154 175.500 M 116 170 C 114.825 171.650, 113.246 173, 112.491 173 C 110.559 173, 109.499 175.072, 110.966 175.979 C 112.767 177.092, 109.498 183, 107.081 183 C 106.054 183, 104.955 183.675, 104.638 184.500 C 104.279 185.437, 104.646 186, 105.618 186 C 106.803 186, 106.199 187.807, 103.087 193.577 C 100.839 197.744, 99 201.794, 99 202.577 C 99 203.790, 106.961 204, 153 204 C 191.230 204, 207 203.682, 207 202.912 C 207 202.314, 205.361 198.893, 203.357 195.310 C 200.784 190.709, 200.059 188.581, 200.891 188.068 C 202.589 187.018, 201.122 184, 198.913 184 C 197.735 184, 196.284 182.516, 195 180 C 193.878 177.800, 193.418 176, 193.980 176 C 195.848 176, 195.031 173.821, 192.960 173.279 C 191.838 172.986, 190.251 171.453, 189.434 169.873 C 188.617 168.293, 187.215 167, 186.319 167 C 184.854 167, 184.844 167.176, 186.212 168.750 C 188.244 171.086, 204 200.417, 204 201.864 C 204 202.697, 190.282 203, 152.500 203 C 124.175 203, 101.004 202.662, 101.009 202.250 C 101.014 201.838, 105.244 193.738, 110.409 184.250 C 115.574 174.762, 119.426 167, 118.968 167 C 118.511 167, 117.175 168.350, 116 170 M 187.940 177.500 C 190.874 183, 194.417 189.473, 195.812 191.885 L 198.348 196.269 189.924 195.793 C 183.831 195.448, 179.779 194.581, 175.280 192.658 C 167.065 189.147, 161.193 189.125, 157.077 192.589 C 154.939 194.388, 154 196.066, 154 198.089 L 154 201 178 201 C 191.200 201, 202 200.710, 202 200.357 C 202 198.869, 185.815 170.095, 184.281 168.855 C 183.359 168.110, 185.005 172, 187.940 177.500 M 149.830 208.500 C 150.703 210.425, 151.965 212, 152.635 212 C 153.604 212, 157 206.823, 157 205.346 C 157 205.156, 155.030 205, 152.622 205 L 148.244 205 149.830 208.500 M 22.010 231.035 C 23.194 235.164, 26.697 240.670, 28.605 241.402 C 29.891 241.895, 29.532 242.870, 26.584 246.885 C 24.613 249.571, 23 252.181, 23 252.686 C 23 255.646, 43.337 259.302, 53.500 258.169 L 59.500 257.500 59.787 248.871 C 60.147 238.067, 61.588 236.144, 68.089 237.795 C 76.145 239.839, 77.739 236.119, 70.250 232.752 C 66.089 230.881, 63.392 230.586, 48.500 230.376 C 39.150 230.244, 29.928 229.656, 28.007 229.068 C 22.002 227.232, 21.012 227.557, 22.010 231.035 M 278.500 229.144 C 276.850 229.678, 267.850 230.228, 258.500 230.366 C 243.623 230.585, 240.907 230.883, 236.750 232.752 C 229.710 235.917, 230.853 240.050, 238.186 237.947 C 245.600 235.820, 247 237.499, 247 248.512 C 247 253.462, 247.444 257.157, 248.087 257.554 C 249.855 258.647, 268.093 258.304, 273.341 257.080 C 276.004 256.459, 279.728 255.305, 281.618 254.515 L 285.054 253.080 281.527 248.170 C 277.643 242.764, 277.289 241.487, 279.448 240.658 C 281.037 240.049, 283.794 235.206, 285.055 230.808 C 285.765 228.331, 285.603 228.010, 283.680 228.086 C 282.481 228.133, 280.150 228.609, 278.500 229.144 M 63.750 238.777 C 62.788 238.980, 62 239.981, 62 241.001 C 62 242.340, 63.575 243.445, 67.654 244.972 C 75.276 247.824, 76.462 247.463, 76.661 242.237 C 76.827 237.889, 76.253 237.147, 74.262 239.138 C 73.470 239.930, 71.970 239.992, 69.312 239.341 C 67.216 238.827, 64.713 238.573, 63.750 238.777 M 230.193 242.250 C 230.492 246.392, 230.586 246.496, 233.894 246.337 C 238.768 246.103, 245 243.064, 245 240.921 C 245 238.677, 242.555 238.148, 237.688 239.341 C 235.030 239.992, 233.530 239.930, 232.738 239.138 C 230.641 237.041, 229.883 237.969, 230.193 242.250 M 32.732 243.250 C 32.460 245.037, 32.296 246.548, 32.369 246.606 C 33.335 247.388, 39 247.703, 39 246.975 C 39 246.439, 37.987 245.971, 36.750 245.937 C 34.562 245.875, 34.569 245.844, 37 244.832 C 39.382 243.839, 39.405 243.751, 37.500 242.965 C 35.618 242.189, 35.637 242.136, 37.809 242.070 C 41.118 241.970, 39.448 240, 36.054 240 C 33.633 240, 33.156 240.466, 32.732 243.250 M 49.166 240.876 C 48.092 241.557, 48.141 241.840, 49.416 242.329 C 50.287 242.664, 51 244.076, 51 245.469 C 51 246.861, 51.450 248, 52 248 C 52.550 248, 53 246.650, 53 245 C 53 243.350, 53.450 242, 54 242 C 54.550 242, 55 241.550, 55 241 C 55 239.787, 51.018 239.702, 49.166 240.876 M 271.250 240.662 C 270.563 240.940, 270 242.082, 270 243.200 C 270 244.741, 270.484 245.107, 272 244.710 C 273.100 244.423, 274 244.595, 274 245.094 C 274 245.592, 272.988 246.030, 271.750 246.068 L 269.500 246.135 271.793 247.239 C 273.610 248.115, 274.412 248.017, 275.661 246.768 C 277.577 244.851, 276.659 243.041, 273.691 242.884 C 271.999 242.794, 271.899 242.664, 273.250 242.311 C 274.212 242.059, 275 241.436, 275 240.927 C 275 239.944, 273.323 239.826, 271.250 240.662 M 40.786 244.006 C 40.268 247.534, 40.590 248, 43.544 248 C 46.099 248, 48.653 245.522, 47.092 244.557 C 46.540 244.215, 46.341 243.275, 46.651 242.468 C 47.069 241.379, 46.442 241, 44.220 241 C 41.658 241, 41.164 241.432, 40.786 244.006 M 264.250 241.662 C 262.150 242.510, 262.721 247.777, 264.991 248.497 C 267.825 249.397, 269.166 248.224, 268.813 245.154 C 268.404 241.600, 267.023 240.543, 264.250 241.662 M 250.208 242.676 C 249.153 243.100, 249.153 243.481, 250.208 244.760 C 251.232 246.001, 251.241 246.412, 250.250 246.746 C 247.809 247.567, 249.049 249, 252.200 249 C 254.689 249, 255.133 248.733, 254.200 247.800 C 253.540 247.140, 253 245.565, 253 244.300 C 253 241.981, 252.568 241.729, 250.208 242.676 M 255.482 243.030 C 255.093 243.659, 255.240 244.640, 255.809 245.209 C 256.378 245.778, 256.592 246.900, 256.284 247.702 C 255.859 248.811, 256.415 249.081, 258.612 248.830 C 261.081 248.548, 261.500 248.065, 261.500 245.500 C 261.500 242.997, 261.060 242.449, 258.844 242.193 C 257.384 242.024, 255.871 242.400, 255.482 243.030 M 61.221 257.238 C 61.495 270.254, 61.542 270.496, 64 271.664 C 70.576 274.789, 95.780 278.254, 129.622 280.684 C 152.512 282.328, 154.962 282.328, 177.622 280.680 C 211.427 278.222, 236.469 274.768, 243 271.664 C 245.458 270.496, 245.505 270.254, 245.779 257.238 C 245.932 249.957, 245.932 244, 245.779 244.001 C 245.626 244.001, 243.085 244.919, 240.133 246.041 C 227.479 250.850, 190.643 254.411, 153.500 254.416 C 116.921 254.420, 79.405 250.806, 66.971 246.080 C 63.962 244.937, 61.374 244.001, 61.221 244.001 C 61.068 244, 61.068 249.957, 61.221 257.238 M 236.500 251.160 C 234.300 251.684, 231.488 252.322, 230.250 252.576 C 228.140 253.009, 228 253.542, 228 261.133 L 228 269.227 232.750 268.542 C 240.732 267.390, 242 266.893, 242 264.911 C 242 263.267, 241.451 263.114, 237.500 263.655 C 231.948 264.416, 231.357 262.587, 236.743 261.313 C 239.123 260.751, 240.614 259.766, 240.837 258.610 C 241.145 257.007, 240.705 256.874, 237.093 257.484 C 231.485 258.432, 231.809 256.537, 237.500 255.104 C 240.942 254.238, 242 253.504, 242 251.986 C 242 249.795, 242.140 249.816, 236.500 251.160 M 69.101 254.187 C 68.608 255.459, 67.282 258.820, 66.154 261.655 L 64.104 266.809 66.777 267.480 C 68.375 267.881, 69.594 267.719, 69.808 267.075 C 70.324 265.528, 73.609 265.752, 75.308 267.451 C 76.106 268.248, 77.988 269.210, 79.490 269.587 C 82.570 270.360, 82.654 271.308, 78.570 259.166 C 76.488 252.977, 76.101 252.478, 73.163 252.187 C 70.626 251.935, 69.821 252.332, 69.101 254.187 M 219 254.109 C 209.796 255.573, 209 255.890, 209 258.091 C 209 259.741, 209.539 260.080, 211.750 259.822 C 214.440 259.507, 214.507 259.626, 214.800 265.250 C 215.079 270.604, 215.269 271, 217.550 271 C 219.899 271, 220 270.731, 220 264.500 C 220 258.233, 220.090 258, 222.500 258 C 224.500 258, 225 257.500, 225 255.500 C 225 254.125, 224.887 253.053, 224.750 253.117 C 224.613 253.181, 222.025 253.628, 219 254.109 M 84 261.875 C 84 266.279, 84.353 270.100, 84.785 270.367 C 85.216 270.634, 88.366 271.168, 91.785 271.555 C 97.569 272.210, 98 272.120, 98 270.257 C 98 268.699, 97.124 268.115, 94.048 267.624 L 90.095 266.992 89.798 260.746 C 89.512 254.761, 89.385 254.487, 86.750 254.184 L 84 253.867 84 261.875 M 100.725 256.609 C 99.665 257.668, 99.838 271.782, 100.918 272.449 C 101.423 272.762, 104.384 273.126, 107.498 273.258 C 114.172 273.543, 116 271.932, 116 265.763 C 116 261.036, 112.463 257.007, 108.295 256.986 C 106.758 256.979, 104.589 256.728, 103.475 256.428 C 102.361 256.129, 101.123 256.210, 100.725 256.609 M 200.500 256.962 C 197.807 257.455, 197.225 258.278, 194.813 265.006 C 193.335 269.128, 192.097 272.837, 192.063 273.250 C 191.943 274.681, 197.066 273.992, 197.638 272.500 C 198.315 270.737, 203.653 270.459, 204.219 272.158 C 204.461 272.883, 205.597 273.067, 207.255 272.651 L 209.905 271.986 207.377 265.269 C 204.039 256.400, 203.978 256.326, 200.500 256.962 M 72 260 C 72 261.100, 72.633 262, 73.406 262 C 74.320 262, 74.630 261.300, 74.290 260 C 74.002 258.900, 73.369 258, 72.883 258 C 72.398 258, 72 258.900, 72 260 M 119.210 266.250 L 119.500 274.500 126.832 274.795 C 133.431 275.061, 134.130 274.911, 133.824 273.295 C 133.577 271.994, 132.385 271.413, 129.492 271.183 C 123.880 270.738, 122.534 269, 127.800 269 C 131.290 269, 132 268.672, 132 267.060 C 132 265.541, 131.188 265.054, 128.250 264.810 C 123.328 264.403, 124.337 262.500, 129.475 262.500 C 132.326 262.500, 133.540 262.046, 133.771 260.892 C 134.016 259.665, 132.984 259.133, 129.406 258.642 C 126.829 258.289, 123.415 258, 121.820 258 L 118.919 258 119.210 266.250 M 177 259.294 C 173.102 261.265, 171.522 265.460, 172.919 270.123 C 174.252 274.572, 175.808 275.215, 184 274.703 L 189.500 274.359 189.805 269.679 C 190.086 265.369, 189.928 265.001, 187.805 265.014 C 183.936 265.037, 181 266.160, 181 267.617 C 181 268.377, 181.990 269, 183.200 269 C 184.781 269, 185.095 269.305, 184.315 270.085 C 183.719 270.681, 182.166 271.019, 180.865 270.835 C 178.909 270.558, 178.500 269.914, 178.500 267.109 C 178.500 262.895, 181.012 260.902, 183.983 262.757 C 186.372 264.249, 190 264.396, 190 263 C 190 262.450, 189.100 261.100, 188 260 C 185.708 257.708, 180.763 257.391, 177 259.294 M 137 267.500 C 137 275.900, 137.029 276, 139.500 276 C 141.611 276, 142 275.533, 142 273 C 142 271.350, 142.438 270, 142.974 270 C 143.510 270, 144.647 271.350, 145.500 273 C 146.693 275.308, 147.734 276, 150.010 276 L 152.968 276 151.351 272.609 C 149.884 269.533, 149.878 269.012, 151.291 266.994 C 154.517 262.390, 150.920 259, 142.809 259 L 137 259 137 267.500 M 157.223 260.557 C 153.784 262.965, 154.289 266.817, 158.250 268.403 C 166.112 271.552, 165.765 271.307, 163.033 271.774 C 161.676 272.006, 160.401 271.702, 160.199 271.098 C 159.650 269.450, 155 269.745, 155 271.429 C 155 274.122, 158.047 276, 162.416 276 C 167.358 276, 170 273.794, 170 269.667 C 170 267.342, 169.412 266.835, 165.500 265.789 C 163.025 265.127, 161 264.201, 161 263.731 C 161 263.262, 163.025 263.181, 165.500 263.552 C 170.353 264.280, 171.183 263.380, 168.171 260.655 C 165.866 258.569, 160.134 258.517, 157.223 260.557 M 106 265.070 C 106 268.718, 106.233 269.106, 108.250 268.820 C 112.218 268.256, 111.408 261, 107.378 261 C 106.433 261, 106 262.280, 106 265.070 M 199.773 264.408 C 199.436 266.171, 199.713 267, 200.639 267 C 202.170 267, 202.398 265.176, 201.119 263.158 C 200.498 262.178, 200.135 262.515, 199.773 264.408 M 142 264.430 C 142 265.451, 142.903 266, 144.583 266 C 147.716 266, 147.373 263.652, 144.172 263.180 C 142.729 262.968, 142 263.388, 142 264.430" stroke="none" fill="#136a39" fill-rule="evenodd"/></svg>